<?plantuml 1.2026.1?><svg xmlns="http://www.w3.org/2000/svg" xmlns:xlink="http://www.w3.org/1999/xlink" contentStyleType="text/css" data-diagram-type="DESCRIPTION" height="1049px" preserveAspectRatio="none" style="width:1356px;height:1049px;background:#FFFFFF;" version="1.1" viewBox="0 0 1356 1049" width="1356px" zoomAndPan="magnify"><defs/><g><!--cluster Input Artifacts--><g class="cluster" data-qualified-name="Input Artifacts" data-source-line="20" id="ent0004"><rect fill="none" height="115" rx="2.5" ry="2.5" style="stroke:#181818;stroke-width:1;" width="587" x="8" y="7"/><text fill="#000000" font-family="sans-serif" font-size="14" font-weight="bold" lengthAdjust="spacing" textLength="102.8856" x="250.0572" y="23.9659">Input Artifacts</text></g><!--cluster CorePkg--><g class="cluster" data-qualified-name="CorePkg" data-source-line="27" id="ent0009"><rect fill="none" height="715.5" rx="2.5" ry="2.5" style="stroke:#181818;stroke-width:1;" width="459" x="7" y="324"/><text fill="#000000" font-family="sans-serif" font-size="14" font-weight="bold" lengthAdjust="spacing" textLength="352.1686" x="60.4157" y="340.9659">src/ai_checker/ (Core Framework &#8212; no LangChain)</text></g><!--cluster AdapterPkg--><g class="cluster" data-qualified-name="AdapterPkg" data-source-line="37" id="ent0017"><rect fill="none" height="122" rx="2.5" ry="2.5" style="stroke:#181818;stroke-width:1;" width="386" x="744" y="704"/><text fill="#000000" font-family="sans-serif" font-size="14" font-weight="bold" lengthAdjust="spacing" textLength="257.697" x="808.1515" y="720.9659">src/ai_checker/agents/ (AI backends)</text></g><!--cluster Output Artifacts--><g class="cluster" data-qualified-name="Output Artifacts" data-source-line="42" id="ent0020"><rect fill="none" height="115" rx="2.5" ry="2.5" style="stroke:#181818;stroke-width:1;" width="219" x="490" y="921"/><text fill="#000000" font-family="sans-serif" font-size="14" font-weight="bold" lengthAdjust="spacing" textLength="114.6595" x="542.1702" y="937.9659">Output Artifacts</text></g><!--cluster AI Services--><g class="cluster" data-qualified-name="AI Services" data-source-line="47" id="ent0023"><rect fill="none" height="122" rx="2.5" ry="2.5" style="stroke:#181818;stroke-width:1;" width="369" x="874" y="917.5"/><text fill="#000000" font-family="sans-serif" font-size="14" font-weight="bold" lengthAdjust="spacing" textLength="75.7537" x="1020.6231" y="934.4659">AI Services</text></g><!--cluster Test Environment--><g class="cluster" data-qualified-name="Test Environment" data-source-line="52" id="ent0026"><rect fill="none" height="122" rx="2.5" ry="2.5" style="stroke:#181818;stroke-width:1;" width="232" x="913" y="513"/><text fill="#000000" font-family="sans-serif" font-size="14" font-weight="bold" lengthAdjust="spacing" textLength="123.8435" x="967.0782" y="529.9659">Test Environment</text></g><!--entity ReqFile--><g class="entity" data-qualified-name="Input Artifacts.ReqFile" data-source-line="21" id="ent0005"><rect fill="#F1F1F1" height="61.1358" rx="2.5" ry="2.5" style="stroke:#181818;stroke-width:0.5;" width="122.5536" x="24.5" y="45"/><polygon fill="#F1F1F1" points="130.0536,50,130.0536,64,142.0536,64,142.0536,56,136.0536,50,130.0536,50" style="stroke:#181818;stroke-width:0.5;"/><line style="stroke:#181818;stroke-width:0.5;" x1="136.0536" x2="136.0536" y1="50" y2="56"/><line style="stroke:#181818;stroke-width:0.5;" x1="142.0536" x2="136.0536" y1="56" y2="56"/><text fill="#000000" font-family="sans-serif" font-size="14" lengthAdjust="spacing" textLength="32.6759" x="34.5" y="72.9659">TRLC</text><text fill="#000000" font-family="sans-serif" font-size="14" lengthAdjust="spacing" textLength="92.5536" x="34.5" y="92.0339">Requirements</text></g><!--entity PumlFile--><g class="entity" data-qualified-name="Input Artifacts.PumlFile" data-source-line="22" id="ent0006"><rect fill="#F1F1F1" height="61.1358" rx="2.5" ry="2.5" style="stroke:#181818;stroke-width:0.5;" width="110.7657" x="182.5" y="45"/><polygon fill="#F1F1F1" points="276.2657,50,276.2657,64,288.2657,64,288.2657,56,282.2657,50,276.2657,50" style="stroke:#181818;stroke-width:0.5;"/><line style="stroke:#181818;stroke-width:0.5;" x1="282.2657" x2="282.2657" y1="50" y2="56"/><line style="stroke:#181818;stroke-width:0.5;" x1="288.2657" x2="282.2657" y1="56" y2="56"/><text fill="#000000" font-family="sans-serif" font-size="14" lengthAdjust="spacing" textLength="80.7657" x="192.5" y="72.9659">Architecture</text><text fill="#000000" font-family="sans-serif" font-size="14" lengthAdjust="spacing" textLength="72.3097" x="192.5" y="92.0339">(PlantUML)</text></g><!--entity GuideFile--><g class="entity" data-qualified-name="Input Artifacts.GuideFile" data-source-line="23" id="ent0007"><rect fill="#F1F1F1" height="61.1358" rx="2.5" ry="2.5" style="stroke:#181818;stroke-width:0.5;" width="108.9457" x="328.5" y="45"/><polygon fill="#F1F1F1" points="420.4457,50,420.4457,64,432.4457,64,432.4457,56,426.4457,50,420.4457,50" style="stroke:#181818;stroke-width:0.5;"/><line style="stroke:#181818;stroke-width:0.5;" x1="426.4457" x2="426.4457" y1="50" y2="56"/><line style="stroke:#181818;stroke-width:0.5;" x1="432.4457" x2="426.4457" y1="56" y2="56"/><text fill="#000000" font-family="sans-serif" font-size="14" lengthAdjust="spacing" textLength="69.4397" x="338.5" y="72.9659">Guidelines</text><text fill="#000000" font-family="sans-serif" font-size="14" lengthAdjust="spacing" textLength="78.9457" x="338.5" y="92.0339">(Markdown)</text></g><!--entity ContextFile--><g class="entity" data-qualified-name="Input Artifacts.ContextFile" data-source-line="24" id="ent0008"><rect fill="#F1F1F1" height="61.1358" rx="2.5" ry="2.5" style="stroke:#181818;stroke-width:0.5;" width="106.5517" x="472.5" y="45"/><polygon fill="#F1F1F1" points="562.0517,50,562.0517,64,574.0517,64,574.0517,56,568.0517,50,562.0517,50" style="stroke:#181818;stroke-width:0.5;"/><line style="stroke:#181818;stroke-width:0.5;" x1="568.0517" x2="568.0517" y1="50" y2="56"/><line style="stroke:#181818;stroke-width:0.5;" x1="574.0517" x2="568.0517" y1="56" y2="56"/><text fill="#000000" font-family="sans-serif" font-size="14" lengthAdjust="spacing" textLength="51.3798" x="482.5" y="72.9659">Context</text><text fill="#000000" font-family="sans-serif" font-size="14" lengthAdjust="spacing" textLength="76.5517" x="482.5" y="92.0339">(md / puml)</text></g><!--entity Orchestrator--><g class="entity" data-qualified-name="CorePkg.Orchestrator" data-source-line="28" id="ent0010"><rect fill="#F1F1F1" height="68.1358" rx="2.5" ry="2.5" style="stroke:#181818;stroke-width:0.5;" width="124.6857" x="156.5" y="551"/><rect fill="#F1F1F1" height="10" style="stroke:#181818;stroke-width:0.5;" width="15" x="261.1857" y="556"/><rect fill="#F1F1F1" height="2" style="stroke:#181818;stroke-width:0.5;" width="4" x="259.1857" y="558"/><rect fill="#F1F1F1" height="2" style="stroke:#181818;stroke-width:0.5;" width="4" x="259.1857" y="562"/><text fill="#000000" font-family="sans-serif" font-size="14" lengthAdjust="spacing" textLength="84.6857" x="171.5" y="585.9659">Orchestrator</text><text fill="#000000" font-family="sans-serif" font-size="14" lengthAdjust="spacing" textLength="72.0157" x="171.5" y="605.0339">(py_binary)</text></g><!--entity AIChecker--><g class="entity" data-qualified-name="CorePkg.AIChecker" data-source-line="29" id="ent0011"><rect fill="#F1F1F1" height="68.1358" rx="2.5" ry="2.5" style="stroke:#181818;stroke-width:0.5;" width="106.9617" x="311.5" y="742"/><rect fill="#F1F1F1" height="10" style="stroke:#181818;stroke-width:0.5;" width="15" x="398.4617" y="747"/><rect fill="#F1F1F1" height="2" style="stroke:#181818;stroke-width:0.5;" width="4" x="396.4617" y="749"/><rect fill="#F1F1F1" height="2" style="stroke:#181818;stroke-width:0.5;" width="4" x="396.4617" y="753"/><text fill="#000000" font-family="sans-serif" font-size="14" lengthAdjust="spacing" textLength="66.9617" x="326.5" y="776.9659">AIChecker</text><text fill="#000000" font-family="sans-serif" font-size="14" lengthAdjust="spacing" textLength="46.5638" x="326.5" y="796.0339">(Async)</text></g><!--entity Extractor--><g class="entity" data-qualified-name="CorePkg.Extractor" data-source-line="30" id="ent0012"><rect fill="#F1F1F1" height="68.1358" rx="2.5" ry="2.5" style="stroke:#181818;stroke-width:0.5;" width="125.8477" x="23" y="362"/><rect fill="#F1F1F1" height="10" style="stroke:#181818;stroke-width:0.5;" width="15" x="128.8477" y="367"/><rect fill="#F1F1F1" height="2" style="stroke:#181818;stroke-width:0.5;" width="4" x="126.8477" y="369"/><rect fill="#F1F1F1" height="2" style="stroke:#181818;stroke-width:0.5;" width="4" x="126.8477" y="373"/><text fill="#000000" font-family="sans-serif" font-size="14" lengthAdjust="spacing" textLength="85.8477" x="38" y="396.9659">Requirement</text><text fill="#000000" font-family="sans-serif" font-size="14" lengthAdjust="spacing" textLength="59.9058" x="38" y="416.0339">Extractor</text></g><!--entity ArchExtractor--><g class="entity" data-qualified-name="CorePkg.ArchExtractor" data-source-line="31" id="ent0013"><rect fill="#F1F1F1" height="68.1358" rx="2.5" ry="2.5" style="stroke:#181818;stroke-width:0.5;" width="120.7657" x="184.5" y="362"/><rect fill="#F1F1F1" height="10" style="stroke:#181818;stroke-width:0.5;" width="15" x="285.2657" y="367"/><rect fill="#F1F1F1" height="2" style="stroke:#181818;stroke-width:0.5;" width="4" x="283.2657" y="369"/><rect fill="#F1F1F1" height="2" style="stroke:#181818;stroke-width:0.5;" width="4" x="283.2657" y="373"/><text fill="#000000" font-family="sans-serif" font-size="14" lengthAdjust="spacing" textLength="80.7657" x="199.5" y="396.9659">Architecture</text><text fill="#000000" font-family="sans-serif" font-size="14" lengthAdjust="spacing" textLength="59.9058" x="199.5" y="416.0339">Extractor</text></g><!--entity Formatter--><g class="entity" data-qualified-name="CorePkg.Formatter" data-source-line="32" id="ent0014"><rect fill="#F1F1F1" height="68.1358" rx="2.5" ry="2.5" style="stroke:#181818;stroke-width:0.5;" width="106.2478" x="165" y="742"/><rect fill="#F1F1F1" height="10" style="stroke:#181818;stroke-width:0.5;" width="15" x="251.2478" y="747"/><rect fill="#F1F1F1" height="2" style="stroke:#181818;stroke-width:0.5;" width="4" x="249.2478" y="749"/><rect fill="#F1F1F1" height="2" style="stroke:#181818;stroke-width:0.5;" width="4" x="249.2478" y="753"/><text fill="#000000" font-family="sans-serif" font-size="14" lengthAdjust="spacing" textLength="40.6278" x="180" y="776.9659">Result</text><text fill="#000000" font-family="sans-serif" font-size="14" lengthAdjust="spacing" textLength="66.2478" x="180" y="796.0339">Formatter</text></g><!--entity GReader--><g class="entity" data-qualified-name="CorePkg.GReader" data-source-line="33" id="ent0015"><rect fill="#F1F1F1" height="68.1358" rx="2.5" ry="2.5" style="stroke:#181818;stroke-width:0.5;" width="109.4397" x="340.5" y="362"/><rect fill="#F1F1F1" height="10" style="stroke:#181818;stroke-width:0.5;" width="15" x="429.9397" y="367"/><rect fill="#F1F1F1" height="2" style="stroke:#181818;stroke-width:0.5;" width="4" x="427.9397" y="369"/><rect fill="#F1F1F1" height="2" style="stroke:#181818;stroke-width:0.5;" width="4" x="427.9397" y="373"/><text fill="#000000" font-family="sans-serif" font-size="14" lengthAdjust="spacing" textLength="69.4397" x="355.5" y="396.9659">Guidelines</text><text fill="#000000" font-family="sans-serif" font-size="14" lengthAdjust="spacing" textLength="46.7458" x="355.5" y="416.0339">Reader</text></g><!--entity Cache--><g class="entity" data-qualified-name="CorePkg.Cache" data-source-line="34" id="ent0016"><rect fill="#F1F1F1" height="68.1358" rx="2.5" ry="2.5" style="stroke:#181818;stroke-width:0.5;" width="93.2278" x="73.5" y="955.5"/><rect fill="#F1F1F1" height="10" style="stroke:#181818;stroke-width:0.5;" width="15" x="146.7278" y="960.5"/><rect fill="#F1F1F1" height="2" style="stroke:#181818;stroke-width:0.5;" width="4" x="144.7278" y="962.5"/><rect fill="#F1F1F1" height="2" style="stroke:#181818;stroke-width:0.5;" width="4" x="144.7278" y="966.5"/><text fill="#000000" font-family="sans-serif" font-size="14" lengthAdjust="spacing" textLength="53.2278" x="88.5" y="990.4659">Analysis</text><text fill="#000000" font-family="sans-serif" font-size="14" lengthAdjust="spacing" textLength="39.9698" x="88.5" y="1009.5339">Cache</text></g><!--entity CopilotAgent--><g class="entity" data-qualified-name="AdapterPkg.CopilotAgent" data-source-line="38" id="ent0018"><rect fill="#F1F1F1" height="68.1358" rx="2.5" ry="2.5" style="stroke:#181818;stroke-width:0.5;" width="170.1715" x="944" y="742"/><rect fill="#F1F1F1" height="10" style="stroke:#181818;stroke-width:0.5;" width="15" x="1094.1715" y="747"/><rect fill="#F1F1F1" height="2" style="stroke:#181818;stroke-width:0.5;" width="4" x="1092.1715" y="749"/><rect fill="#F1F1F1" height="2" style="stroke:#181818;stroke-width:0.5;" width="4" x="1092.1715" y="753"/><text fill="#000000" font-family="sans-serif" font-size="14" lengthAdjust="spacing" textLength="85.8337" x="959" y="776.9659">CopilotAgent</text><text fill="#000000" font-family="sans-serif" font-size="14" lengthAdjust="spacing" textLength="130.1715" x="959" y="796.0339">(default, direct SDK)</text></g><!--entity LCAgent--><g class="entity" data-qualified-name="AdapterPkg.LCAgent" data-source-line="39" id="ent0019"><rect fill="#F1F1F1" height="68.1358" rx="2.5" ry="2.5" style="stroke:#181818;stroke-width:0.5;" width="149.2276" x="759.5" y="742"/><rect fill="#F1F1F1" height="10" style="stroke:#181818;stroke-width:0.5;" width="15" x="888.7276" y="747"/><rect fill="#F1F1F1" height="2" style="stroke:#181818;stroke-width:0.5;" width="4" x="886.7276" y="749"/><rect fill="#F1F1F1" height="2" style="stroke:#181818;stroke-width:0.5;" width="4" x="886.7276" y="753"/><text fill="#000000" font-family="sans-serif" font-size="14" lengthAdjust="spacing" textLength="109.2276" x="774.5" y="776.9659">LangChainAgent</text><text fill="#000000" font-family="sans-serif" font-size="14" lengthAdjust="spacing" textLength="62.7338" x="774.5" y="796.0339">(optional)</text></g><!--entity HtmlReport--><g class="entity" data-qualified-name="Output Artifacts.HtmlReport" data-source-line="43" id="ent0021"><rect fill="#F1F1F1" height="61.1358" rx="2.5" ry="2.5" style="stroke:#181818;stroke-width:0.5;" width="74.5198" x="505.5" y="959"/><polygon fill="#F1F1F1" points="563.0198,964,563.0198,978,575.0198,978,575.0198,970,569.0198,964,563.0198,964" style="stroke:#181818;stroke-width:0.5;"/><line style="stroke:#181818;stroke-width:0.5;" x1="569.0198" x2="569.0198" y1="964" y2="970"/><line style="stroke:#181818;stroke-width:0.5;" x1="575.0198" x2="569.0198" y1="970" y2="970"/><text fill="#000000" font-family="sans-serif" font-size="14" lengthAdjust="spacing" textLength="38.1918" x="515.5" y="986.9659">HTML</text><text fill="#000000" font-family="sans-serif" font-size="14" lengthAdjust="spacing" textLength="44.5198" x="515.5" y="1006.0339">Report</text></g><!--entity JsonResults--><g class="entity" data-qualified-name="Output Artifacts.JsonResults" data-source-line="44" id="ent0022"><rect fill="#F1F1F1" height="61.1358" rx="2.5" ry="2.5" style="stroke:#181818;stroke-width:0.5;" width="77.3338" x="615.5" y="959"/><polygon fill="#F1F1F1" points="675.8338,964,675.8338,978,687.8338,978,687.8338,970,681.8338,964,675.8338,964" style="stroke:#181818;stroke-width:0.5;"/><line style="stroke:#181818;stroke-width:0.5;" x1="681.8338" x2="681.8338" y1="964" y2="970"/><line style="stroke:#181818;stroke-width:0.5;" x1="687.8338" x2="681.8338" y1="970" y2="970"/><text fill="#000000" font-family="sans-serif" font-size="14" lengthAdjust="spacing" textLength="33.0819" x="625.5" y="986.9659">JSON</text><text fill="#000000" font-family="sans-serif" font-size="14" lengthAdjust="spacing" textLength="47.3338" x="625.5" y="1006.0339">Results</text></g><!--entity CopilotAPI--><g class="entity" data-qualified-name="AI Services.CopilotAPI" data-source-line="48" id="ent0024"><path d="M1082.6558,965.3865 C1084.3965,958.9207 1089.746,959.2449 1093.565,963.2135 C1095.9818,957.0307 1100.5516,957.5059 1104.519,961.553 C1109.0028,956.0142 1113.1405,954.8527 1117.7669,961.3966 C1120.5984,956.4212 1125.5847,956.2996 1128.642,961.1466 C1131.292,954.7861 1135.2264,954.7439 1139.632,959.3944 C1142.9064,953.7549 1147.3521,952.8383 1151.3989,958.5969 C1155.7729,953.6412 1159.7521,952.887 1163.1989,959.5393 C1167.0665,953.9165 1170.8726,955.3284 1174.1887,960.1212 C1177.5698,956.1596 1182.965,956.672 1184.9339,961.7921 C1189.1179,955.9055 1194.5394,957.3609 1197.22,963.3477 C1201.031,957.831 1205.1743,958.796 1208.4859,963.8784 C1211.68,959.1485 1216.0554,960.1795 1218.4369,964.748 C1225.7476,966.7243 1226.5348,971.8863 1221.7898,977.1276 C1229.2858,978.9003 1230.3422,985.904 1225.3827,990.9211 C1230.7864,996.0072 1228.3813,1002.2055 1222.0024,1004.3188 C1226.7201,1009.1396 1224.7394,1014.5086 1218.2737,1015.6489 C1215.6897,1022.1241 1211.5957,1021.2969 1207.4149,1017.3055 C1203.6264,1023.3329 1198.6864,1022.6921 1195.5707,1016.6456 C1193.3445,1022.2492 1189.3367,1023.2148 1185.1003,1018.7325 C1181.5575,1023.7947 1176.9655,1022.763 1174.4813,1017.6299 C1172.3317,1024.6389 1166.1196,1025.7034 1161.9505,1019.553 C1159.269,1025.7845 1154.2655,1025.7275 1150.7199,1020.3919 C1147.0415,1025.3819 1142.0215,1026.0314 1138.7065,1019.9959 C1135.2031,1024.6919 1130.1143,1023.8732 1128.192,1018.3666 C1124.6753,1023.2922 1119.3026,1023.8315 1116.6107,1017.5168 C1113.6382,1023.2492 1110.3267,1023.544 1106.1528,1018.7055 C1102.2736,1023.195 1097.0404,1022.3235 1094.5718,1017.0349 C1090.2595,1023.2414 1086.5296,1023.3276 1082.388,1016.8706 C1074.8949,1012.3743 1074.9151,1007.6543 1082.0638,1002.8202 C1076.681,999.3007 1074.7817,995.8318 1080.7639,991.0564 C1073.6949,987.3012 1072.9219,980.9104 1080.4184,976.8022 C1075.6885,971.8934 1076.7713,968.2149 1082.6558,965.3865" fill="#F1F1F1" style="stroke:#181818;stroke-width:0.5;"/><text fill="#000000" font-family="sans-serif" font-size="14" lengthAdjust="spacing" textLength="122.6115" x="1088.5" y="985.4659">GitHub Copilot API</text><text fill="#000000" font-family="sans-serif" font-size="14" lengthAdjust="spacing" textLength="54.8938" x="1088.5" y="1004.5339">(default)</text></g><!--entity CustomCloud--><g class="entity" data-qualified-name="AI Services.CustomCloud" data-source-line="49" id="ent0025"><path d="M899.8638,964.7678 C902.8052,959.8686 906.0809,959.6134 909.438,964.3551 C912.8015,959.1852 916.5809,958.6869 921.0115,963.061 C923.7035,958.0303 926.7792,956.7948 931.4337,960.7965 C935.3131,954.3077 939.1801,953.8508 943.8067,960.069 C947.6799,954.6255 951.0537,954.4307 954.6931,960.2941 C956.3821,953.5191 962.048,953.7494 965.9884,957.9845 C969.4093,953.3339 974.3808,953.5708 976.8047,959.0492 C980.1367,954.6591 985.6191,954.5121 987.6666,960.4059 C991.5528,955.1027 997.3734,956.1216 999.5486,962.1933 C1003.5304,958.1521 1006.7652,957.3623 1009.6916,963.2693 C1013.5005,958.353 1018.3318,958.0393 1020.8611,964.5231 C1023.9858,960.576 1029.042,961.0397 1031.2167,965.6701 C1037.1774,967.8905 1038.5667,973.8728 1033.7389,978.2554 C1040.9389,981.287 1041.0205,985.5166 1036.8223,991.2524 C1041.0358,996.3441 1039.5711,1002.2076 1033.0495,1004.162 C1037.9719,1008.2171 1039.3538,1012.9359 1032.5417,1016.5084 C1028.7556,1021.498 1025.2908,1022.2921 1021.0482,1017.0197 C1017.6067,1022.9649 1013.7171,1022.7358 1009.8881,1017.4031 C1006.4689,1023.8161 1002.4756,1024.1774 997.48,1019.1063 C994.193,1023.7038 990.9514,1023.8911 987.2751,1019.5507 C983.826,1024.3872 979.101,1024.7283 975.6034,1019.6074 C972.773,1025.0511 968.483,1024.5084 965.5123,1019.746 C962.2593,1026.1949 956.6232,1025.7849 953.5438,1019.5817 C951.2833,1024.1029 946.7442,1024.6503 943.9337,1020.1688 C939.6174,1025.7769 936.207,1025.1347 932.7067,1019.3637 C929.0773,1025.2318 923.2843,1023.9347 920.6891,1018.2846 C917.2583,1022.9191 912.7484,1023.504 909.2671,1018.3435 C905.1916,1022.9956 901.1625,1021.036 899.1809,1016.1332 C891.9249,1014.7898 889.9967,1009.0302 895.0645,1003.6296 C888.681,1001.236 886.0168,997.6866 890.8097,991.4035 C885.3246,986.1636 886.2979,980.1857 894.245,978.5302 C888.5748,970.9816 892.3802,966.9461 899.8638,964.7678" fill="#F1F1F1" style="stroke:#181818;stroke-width:0.5;"/><text fill="#000000" font-family="sans-serif" font-size="14" lengthAdjust="spacing" textLength="118.4955" x="905" y="985.4659">Custom AI Service</text><text fill="#000000" font-family="sans-serif" font-size="14" lengthAdjust="spacing" textLength="109.4796" x="905" y="1004.5339">(via ai_model.py)</text></g><!--entity CopilotConfig--><g class="entity" data-qualified-name="Test Environment.CopilotConfig" data-source-line="53" id="ent0027"><rect fill="#F1F1F1" height="68.1358" rx="2.5" ry="2.5" style="stroke:#181818;stroke-width:0.5;" width="199.2494" x="929.5" y="551"/><rect fill="#F1F1F1" height="10" style="stroke:#181818;stroke-width:0.5;" width="15" x="1108.7494" y="556"/><rect fill="#F1F1F1" height="2" style="stroke:#181818;stroke-width:0.5;" width="4" x="1106.7494" y="558"/><rect fill="#F1F1F1" height="2" style="stroke:#181818;stroke-width:0.5;" width="4" x="1106.7494" y="562"/><text fill="#000000" font-family="sans-serif" font-size="14" lengthAdjust="spacing" textLength="137.4514" x="944.5" y="585.9659">RunEnvironmentInfo</text><text fill="#000000" font-family="sans-serif" font-size="14" lengthAdjust="spacing" textLength="159.2494" x="944.5" y="605.0339">(inherited_environment)</text></g><!--entity TRLCAPI--><g class="entity" data-qualified-name="TRLCAPI" data-source-line="17" id="ent0002"><ellipse cx="86" cy="227" fill="#F1F1F1" rx="8" ry="8" style="stroke:#181818;stroke-width:0.5;"/><text fill="#000000" font-family="sans-serif" font-size="14" lengthAdjust="spacing" textLength="108.5556" x="31.7222" y="258.9659">TRLC Python API</text></g><!--entity Agent--><g class="entity" data-qualified-name="Agent" data-source-line="18" id="ent0003"><ellipse cx="745" cy="989.5" fill="#F1F1F1" rx="8" ry="8" style="stroke:#181818;stroke-width:0.5;"/><text fill="#000000" font-family="sans-serif" font-size="14" lengthAdjust="spacing" textLength="92.3857" x="698.8072" y="1021.4659">AnalysisAgent</text><text fill="#000000" font-family="sans-serif" font-size="14" lengthAdjust="spacing" textLength="66.6817" x="698.8072" y="1040.5339">(interface)</text></g><g class="entity" data-qualified-name="GMN49" data-source-line="84" id="ent0050"><path d="M1149,735.5 L1149,772 L1114.08,776 L1149,780 L1149,816.3241 A0,0 0 0 0 1149,816.3241 L1349.0362,816.3241 A0,0 0 0 0 1349.0362,816.3241 L1349.0362,745.5 L1339.0362,735.5 L1149,735.5 A0,0 0 0 0 1149,735.5" fill="#FEFFDD" style="stroke:#181818;stroke-width:0.5;"/><path d="M1339.0362,735.5 L1339.0362,745.5 L1349.0362,745.5 L1339.0362,735.5" fill="#FEFFDD" style="stroke:#181818;stroke-width:0.5;"/><text fill="#000000" font-family="sans-serif" font-size="13" lengthAdjust="spacing" textLength="177.1642" x="1155" y="754.397">Default backend. Talks to the</text><text fill="#000000" font-family="sans-serif" font-size="13" lengthAdjust="spacing" textLength="169.7802" x="1155" y="772.103">GitHub Copilot SDK directly,</text><text fill="#000000" font-family="sans-serif" font-size="13" lengthAdjust="spacing" textLength="179.0362" x="1155" y="789.809">no LangChain. Reports usage</text><text fill="#000000" font-family="sans-serif" font-size="13" lengthAdjust="spacing" textLength="105.1831" x="1155" y="807.5151">(tokens / credits).</text></g><g class="entity" data-qualified-name="N1" data-source-line="91" id="ent0052"><path d="M614.5,35 L614.5,115.8241 L819.9962,115.8241 L819.9962,45 L809.9962,35 L614.5,35" fill="#FEFFDD" style="stroke:#181818;stroke-width:0.5;"/><path d="M809.9962,35 L809.9962,45 L819.9962,45 L809.9962,35" fill="#FEFFDD" style="stroke:#181818;stroke-width:1;"/><text fill="#000000" font-family="sans-serif" font-size="13" font-weight="bold" lengthAdjust="spacing" textLength="179.8421" x="620.5" y="53.897">AIChecker - Async Features:</text><text fill="#000000" font-family="sans-serif" font-size="13" lengthAdjust="spacing" textLength="184.4052" x="620.5" y="71.603">- Concurrent batch processing</text><text fill="#000000" font-family="sans-serif" font-size="13" lengthAdjust="spacing" textLength="166.3352" x="620.5" y="89.309">- Rate limiting (Semaphore)</text><text fill="#000000" font-family="sans-serif" font-size="13" lengthAdjust="spacing" textLength="184.4962" x="620.5" y="107.0151">- Smart batching (count + size)</text></g><g class="entity" data-qualified-name="N2" data-source-line="98" id="ent0053"><path d="M855,35 L855,115.8241 L1105.3462,115.8241 L1105.3462,45 L1095.3462,35 L855,35" fill="#FEFFDD" style="stroke:#181818;stroke-width:0.5;"/><path d="M1095.3462,35 L1095.3462,45 L1105.3462,45 L1095.3462,35" fill="#FEFFDD" style="stroke:#181818;stroke-width:1;"/><text fill="#000000" font-family="sans-serif" font-size="13" font-weight="bold" lengthAdjust="spacing" textLength="42.744" x="861" y="53.897">Cache:</text><text fill="#000000" font-family="sans-serif" font-size="13" lengthAdjust="spacing" textLength="229.3462" x="861" y="71.603">Intentionally disabled for Bazel builds</text><text fill="#000000" font-family="sans-serif" font-size="13" lengthAdjust="spacing" textLength="195.2862" x="861" y="89.309">(Bazel has its own action cache).</text><text fill="#000000" font-family="sans-serif" font-size="13" lengthAdjust="spacing" textLength="214.2142" x="861" y="107.0151">Only available via CLI: --cache &lt;dir&gt;</text></g><!--link ReqFile to TRLCAPI--><g class="link" data-entity-1="ent0005" data-entity-2="ent0002" data-link-type="dependency" data-source-line="56" id="lnk28"><path d="M86,106.04 C86,140.93 86,190.86 86,211.77" fill="none" id="ReqFile-to-TRLCAPI" style="stroke:#181818;stroke-width:1;"/><polygon fill="#181818" points="86,217.77,90,208.77,86,212.77,82,208.77,86,217.77" style="stroke:#181818;stroke-width:1;"/><text fill="#000000" font-family="sans-serif" font-size="13" lengthAdjust="spacing" textLength="62.842" x="87" y="160.897">parsed via</text></g><!--link TRLCAPI to Extractor--><g class="link" data-entity-1="ent0002" data-entity-2="ent0012" data-link-type="dependency" data-source-line="57" id="lnk29"><path d="M86,236.05 C86,258.4 86,316.14 86,355.78" fill="none" id="TRLCAPI-to-Extractor" style="stroke:#181818;stroke-width:1;"/><polygon fill="#181818" points="86,361.78,90,352.78,86,356.78,82,352.78,86,361.78" style="stroke:#181818;stroke-width:1;"/><text fill="#000000" font-family="sans-serif" font-size="13" lengthAdjust="spacing" textLength="78.2731" x="87" y="303.897">symbol table</text></g><!--link PumlFile to ArchExtractor--><g class="link" data-entity-1="ent0006" data-entity-2="ent0013" data-link-type="dependency" data-source-line="58" id="lnk30"><path d="M238.65,106.18 C239.96,165.79 242.768,293.6815 244.138,355.9615" fill="none" id="PumlFile-to-ArchExtractor" style="stroke:#181818;stroke-width:1;"/><polygon fill="#181818" points="244.27,361.96,248.0711,352.8742,244.16,356.9612,240.073,353.0501,244.27,361.96" style="stroke:#181818;stroke-width:1;"/><text fill="#000000" font-family="sans-serif" font-size="13" lengthAdjust="spacing" textLength="88.2571" x="243" y="232.397">raw .puml text</text></g><!--link Extractor to Orchestrator--><g class="link" data-entity-1="ent0012" data-entity-2="ent0010" data-link-type="dependency" data-source-line="59" id="lnk31"><path d="M90.55,430.13 C94.55,450.66 101.86,476.87 115,497 C128.64,517.9 144.0464,532.7519 163.0064,547.2719" fill="none" id="Extractor-to-Orchestrator" style="stroke:#181818;stroke-width:1;"/><polygon fill="#181818" points="167.77,550.92,163.0567,542.2722,163.8004,547.88,158.1926,548.6236,167.77,550.92" style="stroke:#181818;stroke-width:1;"/><text fill="#000000" font-family="sans-serif" font-size="13" lengthAdjust="spacing" textLength="53.612" x="127.596" y="474.897">artefacts</text><text fill="#000000" font-family="sans-serif" font-size="13" lengthAdjust="spacing" textLength="76.8041" x="116" y="492.603">(Dict format)</text></g><!--link ArchExtractor to Orchestrator--><g class="link" data-entity-1="ent0013" data-entity-2="ent0010" data-link-type="dependency" data-source-line="60" id="lnk32"><path d="M219,430.28 C213.26,439.42 208,449.67 205,460 C196.29,489.96 200.3181,519.6384 206.8181,544.9584" fill="none" id="ArchExtractor-to-Orchestrator" style="stroke:#181818;stroke-width:1;"/><polygon fill="#181818" points="208.31,550.77,209.9465,541.0581,207.0667,545.927,202.1978,543.0473,208.31,550.77" style="stroke:#181818;stroke-width:1;"/><text fill="#000000" font-family="sans-serif" font-size="13" lengthAdjust="spacing" textLength="53.612" x="217.596" y="474.897">artefacts</text><text fill="#000000" font-family="sans-serif" font-size="13" lengthAdjust="spacing" textLength="76.8041" x="206" y="492.603">(Dict format)</text></g><!--link GuideFile to GReader--><g class="link" data-entity-1="ent0007" data-entity-2="ent0015" data-link-type="dependency" data-source-line="61" id="lnk33"><path d="M384.12,106.18 C386.36,165.79 391.1838,293.6843 393.5338,355.9643" fill="none" id="GuideFile-to-GReader" style="stroke:#181818;stroke-width:1;"/><polygon fill="#181818" points="393.76,361.96,397.4178,352.8156,393.5715,356.9636,389.4235,353.1172,393.76,361.96" style="stroke:#181818;stroke-width:1;"/><text fill="#000000" font-family="sans-serif" font-size="13" lengthAdjust="spacing" textLength="32.734" x="391" y="232.397">loads</text></g><!--link ContextFile to GReader--><g class="link" data-entity-1="ent0008" data-entity-2="ent0015" data-link-type="dependency" data-source-line="62" id="lnk34"><path d="M513.79,106.18 C489.28,165.79 436.4926,294.1312 410.8726,356.4112" fill="none" id="ContextFile-to-GReader" style="stroke:#181818;stroke-width:1;"/><polygon fill="#181818" points="408.59,361.96,415.7132,355.1585,410.4922,357.336,408.3147,352.115,408.59,361.96" style="stroke:#181818;stroke-width:1;"/><text fill="#000000" font-family="sans-serif" font-size="13" lengthAdjust="spacing" textLength="32.734" x="477" y="232.397">loads</text></g><!--link GReader to Orchestrator--><g class="link" data-entity-1="ent0015" data-entity-2="ent0010" data-link-type="dependency" data-source-line="63" id="lnk35"><path d="M363.94,430 C331.97,463.97 286.5325,512.2511 254.4525,546.3311" fill="none" id="GReader-to-Orchestrator" style="stroke:#181818;stroke-width:1;"/><polygon fill="#181818" points="250.34,550.7,259.4214,546.8883,253.7671,547.0593,253.5962,541.405,250.34,550.7" style="stroke:#181818;stroke-width:1;"/><text fill="#000000" font-family="sans-serif" font-size="13" lengthAdjust="spacing" textLength="122.9411" x="335" y="474.897">guidelines + context</text><text fill="#000000" font-family="sans-serif" font-size="13" lengthAdjust="spacing" textLength="100.5161" x="346.2125" y="492.603">(system prompt)</text></g><!--link Orchestrator to AIChecker--><g class="link" data-entity-1="ent0010" data-entity-2="ent0011" data-link-type="dependency" data-source-line="65" id="lnk36"><path d="M281.52,613.79 C297.87,623.56 314.2,635.95 326,651 C346.74,677.46 355.5415,709.2154 360.1215,736.0754" fill="none" id="Orchestrator-to-AIChecker" style="stroke:#181818;stroke-width:1;"/><polygon fill="#181818" points="361.13,741.99,363.5603,732.4457,360.2896,737.0611,355.6741,733.7904,361.13,741.99" style="stroke:#181818;stroke-width:1;"/><text fill="#000000" font-family="sans-serif" font-size="13" lengthAdjust="spacing" textLength="83.8501" x="348" y="665.897">async analyze</text><text fill="#000000" font-family="sans-serif" font-size="13" lengthAdjust="spacing" textLength="77.4931" x="351.1785" y="683.603">with batches</text></g><!--link AIChecker to Orchestrator--><g class="link" data-entity-1="ent0011" data-entity-2="ent0010" data-link-type="dependency" data-source-line="75" id="lnk44"><path d="M341.33,741.66 C327.71,725.11 309.11,706.47 288,696 C274.96,689.53 232.85,698.71 223,688 C206.32,669.87 205.5945,647.2785 209.3045,624.9985" fill="none" id="AIChecker-to-Orchestrator" style="stroke:#181818;stroke-width:1;stroke-dasharray:7,7;"/><polygon fill="#181818" points="210.29,619.08,204.866,627.3007,209.4687,624.0121,212.7574,628.6148,210.29,619.08" style="stroke:#181818;stroke-width:1;"/><text fill="#000000" font-family="sans-serif" font-size="13" lengthAdjust="spacing" textLength="93.3791" x="224" y="674.897">AnalysisResults</text></g><!--link AIChecker to Cache--><g class="link" data-entity-1="ent0011" data-entity-2="ent0016" data-link-type="dependency" data-source-line="66" id="lnk37"><path d="M329.13,810.06 C316.93,819.44 302.66,828.56 288,834 C270.14,840.62 129.97,832.55 117,846.5 C90.22,875.31 96.2536,917.5937 105.9036,949.7137" fill="none" id="AIChecker-to-Cache" style="stroke:#181818;stroke-width:1;"/><polygon fill="#181818" points="107.63,955.46,108.8713,945.6897,106.1913,950.6714,101.2096,947.9915,107.63,955.46" style="stroke:#181818;stroke-width:1;"/><text fill="#000000" font-family="sans-serif" font-size="13" lengthAdjust="spacing" textLength="50.453" x="121.0225" y="870.397">optional</text><text fill="#000000" font-family="sans-serif" font-size="13" lengthAdjust="spacing" textLength="56.4981" x="118" y="888.103">(CLI only)</text></g><!--link AIChecker to Agent--><g class="link" data-entity-1="ent0011" data-entity-2="ent0003" data-link-type="dependency" data-source-line="68" id="lnk38"><path d="M418.83,795.54 C449.87,807.57 488.8,824.99 520,846.5 C548.46,866.12 543.47,887.32 575,901.5 C602.21,913.73 684.4,892.62 709,909.5 C733.36,926.22 740.6315,957.7061 743.1215,974.3361" fill="none" id="AIChecker-to-Agent" style="stroke:#181818;stroke-width:1;"/><polygon fill="#181818" points="744.01,980.27,746.6332,970.7769,743.2696,975.3251,738.7214,971.9615,744.01,980.27" style="stroke:#181818;stroke-width:1;"/><text fill="#000000" font-family="sans-serif" font-size="13" lengthAdjust="spacing" textLength="148.5381" x="576" y="861.397">analyze(system_prompt,</text><text fill="#000000" font-family="sans-serif" font-size="13" lengthAdjust="spacing" textLength="57.512" x="621.513" y="879.103">artefacts)</text><text fill="#000000" font-family="sans-serif" font-size="13" lengthAdjust="spacing" textLength="75.0101" x="612.764" y="896.809">(concurrent)</text></g><!--link Agent to AIChecker--><g class="link" data-entity-1="ent0003" data-entity-2="ent0011" data-link-type="dependency" data-source-line="74" id="lnk43"><path d="M744.09,980.46 C741.73,963.84 733.75,925.9 709,909.5 C681.95,891.57 443.76,919.86 417,901.5 C401.26,890.7 386.2327,848.9183 376.1227,815.8183" fill="none" id="Agent-to-AIChecker" style="stroke:#181818;stroke-width:1;stroke-dasharray:7,7;"/><polygon fill="#181818" points="374.37,810.08,373.1735,819.8559,375.8306,814.8619,380.8246,817.519,374.37,810.08" style="stroke:#181818;stroke-width:1;"/><text fill="#000000" font-family="sans-serif" font-size="13" lengthAdjust="spacing" textLength="93.3791" x="418" y="879.397">AnalysisResults</text></g><!--link CopilotAgent to Agent--><g class="link" data-entity-1="ent0018" data-entity-2="ent0003" data-link-type="extension" data-source-line="69" id="lnk39"><path d="M977.11,810.06 C961.21,818.98 943.33,827.85 926,834 C896.22,844.57 881.9,828.39 856,846.5 C832.82,862.71 840.71,878.68 824,901.5 C801.1,932.77 781.5539,952.98 766.3639,967.8" fill="none" id="CopilotAgent-to-Agent" style="stroke:#181818;stroke-width:1;stroke-dasharray:7,7;"/><polygon fill="none" points="753.48,980.37,770.5539,972.0946,762.1739,963.5053,753.48,980.37" style="stroke:#181818;stroke-width:1;"/><text fill="#000000" font-family="sans-serif" font-size="13" lengthAdjust="spacing" textLength="72.6311" x="857" y="879.397">implements</text></g><!--link LCAgent to Agent--><g class="link" data-entity-1="ent0019" data-entity-2="ent0003" data-link-type="extension" data-source-line="70" id="lnk40"><path d="M776.56,810.17 C764.28,820.17 752.93,832.33 746,846.5 C723.48,892.57 732.418,940.0844 738.248,962.8144" fill="none" id="LCAgent-to-Agent" style="stroke:#181818;stroke-width:1;stroke-dasharray:7,7;"/><polygon fill="none" points="742.72,980.25,744.0598,961.3237,732.4361,964.3051,742.72,980.25" style="stroke:#181818;stroke-width:1;"/><text fill="#000000" font-family="sans-serif" font-size="13" lengthAdjust="spacing" textLength="72.6311" x="747" y="879.397">implements</text></g><!--link CopilotAgent to CopilotAPI--><g class="link" data-entity-1="ent0018" data-entity-2="ent0024" data-link-type="dependency" data-source-line="71" id="lnk41"><path d="M1056.59,810.3 C1065.24,821.46 1074.48,834.2 1082,846.5 C1103.83,882.17 1121.4917,920.4129 1134.0717,949.8429" fill="none" id="CopilotAgent-to-CopilotAPI" style="stroke:#181818;stroke-width:1;"/><polygon fill="#181818" points="1136.43,955.36,1136.5706,945.5121,1134.4647,950.7624,1129.2145,948.6566,1136.43,955.36" style="stroke:#181818;stroke-width:1;"/><text fill="#000000" font-family="sans-serif" font-size="13" lengthAdjust="spacing" textLength="71.3961" x="1113.678" y="870.397">Copilot SDK</text><text fill="#000000" font-family="sans-serif" font-size="13" lengthAdjust="spacing" textLength="76.7521" x="1111" y="888.103">(Node.js CLI)</text></g><!--link LCAgent to CustomCloud--><g class="link" data-entity-1="ent0019" data-entity-2="ent0025" data-link-type="dependency" data-source-line="72" id="lnk42"><path d="M891.63,810 C912.04,822.8 931.56,836.7 938,846.5 C959.47,879.17 964.3125,918.7612 964.9125,949.3812" fill="none" id="LCAgent-to-CustomCloud" style="stroke:#181818;stroke-width:1;"/><polygon fill="#181818" points="965.03,955.38,968.8529,946.3034,964.932,950.381,960.8544,946.4601,965.03,955.38" style="stroke:#181818;stroke-width:1;"/><text fill="#000000" font-family="sans-serif" font-size="13" lengthAdjust="spacing" textLength="90.4021" x="962.7365" y="870.397">any LangChain</text><text fill="#000000" font-family="sans-serif" font-size="13" lengthAdjust="spacing" textLength="95.8751" x="960" y="888.103">BaseChatModel</text></g><!--link Orchestrator to Formatter--><g class="link" data-entity-1="ent0010" data-entity-2="ent0014" data-link-type="dependency" data-source-line="77" id="lnk45"><path d="M156.45,610.35 C139.3,620.26 122.75,633.58 113,651 C92.95,686.81 124.6238,718.6327 160.0038,742.3127" fill="none" id="Orchestrator-to-Formatter" style="stroke:#181818;stroke-width:1;"/><polygon fill="#181818" points="164.99,745.65,159.7355,737.3199,160.8348,742.8689,155.2858,743.9682,164.99,745.65" style="stroke:#181818;stroke-width:1;"/><text fill="#000000" font-family="sans-serif" font-size="13" lengthAdjust="spacing" textLength="72.3581" x="114" y="674.897">pass results</text></g><!--link Formatter to HtmlReport--><g class="link" data-entity-1="ent0014" data-entity-2="ent0021" data-link-type="dependency" data-source-line="78" id="lnk46"><path d="M205.6,810.26 C197.48,838.43 192.13,877.89 215,901.5 C224.71,911.52 453.23,903.87 466,909.5 C489.49,919.85 505.818,936.2571 519.548,954.0771" fill="none" id="Formatter-to-HtmlReport" style="stroke:#181818;stroke-width:1;"/><polygon fill="#181818" points="523.21,958.83,520.8856,949.2594,520.1583,954.8693,514.5484,954.142,523.21,958.83" style="stroke:#181818;stroke-width:1;"/><text fill="#000000" font-family="sans-serif" font-size="13" lengthAdjust="spacing" textLength="61.607" x="216" y="879.397">generates</text></g><!--link Formatter to JsonResults--><g class="link" data-entity-1="ent0014" data-entity-2="ent0022" data-link-type="dependency" data-source-line="79" id="lnk47"><path d="M250.93,810.16 C261.34,821.31 272.58,834.09 282,846.5 C299.37,869.4 291.1,887.15 316,901.5 C343.16,917.15 570.36,894.71 598,909.5 C617.72,920.05 629.2808,935.6425 638.5108,953.3025" fill="none" id="Formatter-to-JsonResults" style="stroke:#181818;stroke-width:1;"/><polygon fill="#181818" points="641.29,958.62,640.6662,948.7909,638.974,954.1887,633.5762,952.4965,641.29,958.62" style="stroke:#181818;stroke-width:1;"/><text fill="#000000" font-family="sans-serif" font-size="13" lengthAdjust="spacing" textLength="61.607" x="317" y="879.397">generates</text></g><!--link CopilotConfig to CopilotAgent--><g class="link" data-entity-1="ent0027" data-entity-2="ent0018" data-link-type="dependency" data-source-line="81" id="lnk48"><path d="M1029,619.35 C1029,653.9 1029,701.56 1029,735.98" fill="none" id="CopilotConfig-to-CopilotAgent" style="stroke:#181818;stroke-width:1;stroke-dasharray:7,7;"/><polygon fill="#181818" points="1029,741.98,1033,732.98,1029,736.98,1025,732.98,1029,741.98" style="stroke:#181818;stroke-width:1;"/><text fill="#000000" font-family="sans-serif" font-size="13" lengthAdjust="spacing" textLength="80.8471" x="1031.9695" y="665.897">inherited env</text><text fill="#000000" font-family="sans-serif" font-size="13" lengthAdjust="spacing" textLength="84.7861" x="1030" y="683.603">(auth + proxy)</text></g><?plantuml-src bLRRRkCs47tNLmpyb6GJ1-sZKIpWTJORRvqBxFJDG41BjCsQ8bMIIg9i2_GZ-eNzaXwIaYmvtXRrayMPCpEScNCaknEgO8RbLB1qnpPyuIh9oV3KCRMHF4c4SjoiMSffy3YVJUYXSbkjQFmm7H2pvC_ml-isLanMLjZnXYktL2UjwJGWmd6IrFbeC5L5wMXid82FimFwbX1-h3w8QPTgpdyhXU4vm3R4mS6rG8Lzvx59jyAX_D9mv7wGJBbVRcSnzKEPooEOBwN8k1IAMo1kcTbb-aL5H30TWKmqBlNgRvTdT4a50aT0RGYGFpgtj2QzPE8ftV9qnyqbdKoquNIDplCNRNRqzvz_aT8qGzSdMoPK4ytmXzscRacgyq8hD806zxWcjyumfmsAAAgdbL3CL17MjHuYnzD9h06miQrKMa-bEJxqx_HzgJw_8cYAg07JFhtBqHj27-HjtmNEkIqbybnhapE7jGcGzkdGlJkuEMTPxVyb_dzNLRsNIpLXw4ziiF_tRuDYVbijvZMUqWe-N6MsxbZ62jHqT3mJNGYfNSE0ZAyPxdLEcV3CeiNLpyryztw7CTfLQABemWcDEqGeQ1TGtThlI_SVNBfvl9tvNXNQk13cnkKoFXvuVbtSttbFFv18kAzMDy-zhEZCWfjdaV8sOIfrcM4-mjsKg-QMNZFspUWt00hImKrAwtHE-y20FGj6c4kkCV5XKIzwT9nuLA-aHsm_VLRFmcZbDtVmVaJpKdKSfcgjWrHjkS7cPazyR-jL2dwlnSOdg_M7BYu-DYeuWeeQopD2iKbz5kpjme_8LlbAIt9i1OLe12auzPWn8iDUQEY5XRoW9Aqb-7OPFl9Jus7WkCALmFJMWJ6dII_a_m6skXT0DQ5693NBRDBHk6Fc-l58katBL_g0MJGIQYlhEDv01jD1xgGBYfrfn0aLUyaYvgdyXhLu4MuBNZeFI5gt00hK7b736kIPpAQabQoGekyQc3HgejRrFCLwpfUgxT8fWg3ij3J6xqNIfIyDXx-taKHUoFYgIcgUVi_S2n7ARXanQea3lK3cEwp-y5TiucnwseODa3qB_2Mg_LjagJuno_7NtNhUuDvrBRsUDiBOa7lV7E_O7-6Xx_jXjMhjsM0jlYMYPtiUlFQwWxNWYWFF3tqwWjDrIdfK33LskuZsDYmci1YDOoMMv8FVhrS_UwKTld34Pkj8hmyb-2ggKwFrGtfaScV9QN9R_n5m86cOJ2tgiZg7kViA7rAyeANIGfLWFN4QGIq-65B3Cu656YP8GhwYkYuepTqFS3qxwwmeXHSrNNFctwXsT7O6Zml_hL6lOgI0lo54s0gr2VOvsaLIvCBXX4uMF6V55byKfy6woB7N4HZCgIuHw0DPyGQF8sNz6CgAj0eLJ45W5TabAxJ1UatBl8RG9_R69QrA8I48k7XytY8CRatul2Bm2KXAVJYqWUWUp2Jsp8JqORo4-aqVOHE23_s4Fd_Sr_KF?></g></svg>