<?plantuml 1.2026.1?><svg xmlns="http://www.w3.org/2000/svg" xmlns:xlink="http://www.w3.org/1999/xlink" contentStyleType="text/css" data-diagram-type="DESCRIPTION" height="546px" preserveAspectRatio="none" style="width:444px;height:546px;background:#FFFFFF;" version="1.1" viewBox="0 0 444 546" width="444px" zoomAndPan="magnify"><defs/><g><!--entity SampleLibrary.SampleFailureMode--><g class="entity" data-qualified-name="SampleLibrary.SampleFailureMode" data-source-line="32" id="ent0002"><rect fill="#F1F1F1" height="39.0679" rx="2.5" ry="2.5" style="stroke:#181818;stroke-width:0.5;" width="288.981" x="131.5" y="7"/><text fill="#000000" font-family="sans-serif" font-size="14" lengthAdjust="spacing" textLength="268.981" x="141.5" y="31.9659">SampleFailureMode takes over the world</text></g><!--entity OG1--><g class="entity" data-qualified-name="OG1" data-source-line="51" id="ent0003"><rect fill="#F1F1F1" height="90" rx="2.5" ry="2.5" style="stroke:#181818;stroke-width:0.5;" width="80" x="236" y="106"/><path d="M276,124 C301,141 300,158 298,174 C276,164 276,164 254,174 C252,158 251,141 276,124" fill="#FFFFFF" style="stroke:#000000;stroke-width:2.5;"/></g><!--entity IEF--><g class="entity" data-qualified-name="IEF" data-source-line="36" id="ent0006"><rect fill="#F1F1F1" height="39.0679" rx="2.5" ry="2.5" style="stroke:#181818;stroke-width:0.5;" width="207.8233" x="72" y="256"/><text fill="#000000" font-family="sans-serif" font-size="14" lengthAdjust="spacing" textLength="187.8233" x="82" y="280.9659">SampleFailureMode is Angry</text></g><!--entity SampleLibrary.JustBadLuck--><g class="entity" data-qualified-name="SampleLibrary.JustBadLuck" data-source-line="41" id="ent0009"><ellipse cx="377.2236" cy="275.4831" fill="#F1F1F1" rx="61.7236" ry="16.4831" style="stroke:#181818;stroke-width:0.5;"/><text fill="#000000" font-family="sans-serif" font-size="14" lengthAdjust="spacing" textLength="83.0477" x="335.6997" y="281.517">Just bad luck</text></g><!--entity AG2--><g class="entity" data-qualified-name="AG2" data-source-line="46" id="ent0012"><rect fill="#F1F1F1" height="90" rx="2.5" ry="2.5" style="stroke:#181818;stroke-width:0.5;" width="80" x="136" y="355"/><path d="M154,423 L198,423 L198,400 A22,27 0 0 0 154,400 L154,423" fill="#FFFFFF" style="stroke:#000000;stroke-width:2.5;"/></g><!--entity SampleLibrary.NoMoreCookies--><g class="entity" data-qualified-name="SampleLibrary.NoMoreCookies" data-source-line="41" id="ent0015"><ellipse cx="82.8139" cy="522.7628" fill="#F1F1F1" rx="76.8139" ry="17.7628" style="stroke:#181818;stroke-width:0.5;"/><text fill="#000000" font-family="sans-serif" font-size="14" lengthAdjust="spacing" textLength="112.7136" x="26.4571" y="528.7967">No More Cookies</text></g><!--entity SampleLibrary.NoMoreCoffee--><g class="entity" data-qualified-name="SampleLibrary.NoMoreCoffee" data-source-line="41" id="ent0018"><ellipse cx="269.0354" cy="523.1071" fill="#F1F1F1" rx="73.5354" ry="17.1071" style="stroke:#181818;stroke-width:0.5;"/><text fill="#000000" font-family="sans-serif" font-size="14" lengthAdjust="spacing" textLength="103.9776" x="217.0466" y="529.141">No More Coffee</text></g><!--reverse link SampleLibrary.SampleFailureMode to OG1--><g class="link" data-entity-1="ent0002" data-entity-2="ent0003" data-link-type="dependency" data-source-line="52" id="lnk5"><path d="M276,52.11 C276,67.9 276,85.21 276,105.75" fill="none" id="SampleLibrary.SampleFailureMode-backto-OG1" style="stroke:#181818;stroke-width:1;"/><polygon fill="#181818" points="276,46.11,272,55.11,276,51.11,280,55.11,276,46.11" style="stroke:#181818;stroke-width:1;"/></g><!--reverse link OG1 to IEF--><g class="link" data-entity-1="ent0003" data-entity-2="ent0006" data-link-type="dependency" data-source-line="37" id="lnk8"><path d="M236.1049,200.8773 C219.3149,221.4373 204.06,240.12 191.16,255.93" fill="none" id="OG1-backto-IEF" style="stroke:#181818;stroke-width:1;"/><polygon fill="#181818" points="239.9,196.23,231.1091,200.6708,236.7374,200.1027,237.3055,205.731,239.9,196.23" style="stroke:#181818;stroke-width:1;"/></g><!--reverse link OG1 to SampleLibrary.JustBadLuck--><g class="link" data-entity-1="ent0003" data-entity-2="ent0009" data-link-type="dependency" data-source-line="42" id="lnk11"><path d="M316.2784,200.8582 C334.4784,222.9182 351.49,243.56 364.45,259.28" fill="none" id="OG1-backto-SampleLibrary.JustBadLuck" style="stroke:#181818;stroke-width:1;"/><polygon fill="#181818" points="312.46,196.23,315.1021,205.7179,315.642,200.0868,321.273,200.6267,312.46,196.23" style="stroke:#181818;stroke-width:1;"/></g><!--reverse link IEF to AG2--><g class="link" data-entity-1="ent0006" data-entity-2="ent0012" data-link-type="dependency" data-source-line="47" id="lnk14"><path d="M176,301.11 C176,316.9 176,334.21 176,354.75" fill="none" id="IEF-backto-AG2" style="stroke:#181818;stroke-width:1;"/><polygon fill="#181818" points="176,295.11,172,304.11,176,300.11,180,304.11,176,295.11" style="stroke:#181818;stroke-width:1;"/></g><!--reverse link AG2 to SampleLibrary.NoMoreCookies--><g class="link" data-entity-1="ent0012" data-entity-2="ent0015" data-link-type="dependency" data-source-line="42" id="lnk17"><path d="M138.5043,449.7877 C122.5143,470.5977 108.01,489.47 96.07,504.99" fill="none" id="AG2-backto-SampleLibrary.NoMoreCookies" style="stroke:#181818;stroke-width:1;"/><polygon fill="#181818" points="142.16,445.03,133.5046,449.7294,139.1136,448.9947,139.8482,454.6037,142.16,445.03" style="stroke:#181818;stroke-width:1;"/></g><!--reverse link AG2 to SampleLibrary.NoMoreCoffee--><g class="link" data-entity-1="ent0012" data-entity-2="ent0018" data-link-type="dependency" data-source-line="42" id="lnk20"><path d="M213.4964,449.7872 C229.9064,471.1372 244.94,490.7 256.84,506.18" fill="none" id="AG2-backto-SampleLibrary.NoMoreCoffee" style="stroke:#181818;stroke-width:1;"/><polygon fill="#181818" points="209.84,445.03,212.1532,454.6034,212.887,448.9943,218.4961,449.7281,209.84,445.03" style="stroke:#181818;stroke-width:1;"/></g><?plantuml-src ZO_RQiCm44JV_HLROwW3nQ7f5pWXDWcvFBJlPMEjKs5TZ2GxvEyhDJQK6aD18BIZERFpn5KbEaQGPSlfQGKgrqcnh1r-Id8eDIEHjNuKHS_meLiGr9E0r3Oao6crY18_tVQaN1g_esm55SX5P-ZehU2m8Gkw9mFkY-2cZM3n2mm_3_nYqDopYIzUXBYLOaFS5Pt7e7zJIB9HSZQbdwNnkNpz9o_PAKT64kFUEBimjv2hgxa7w6vRX2j4-9fhjBmQVFlEEhYWNw-hccb-aDV83eFu0FX2RsOiLA6jaFbEjT4IyhA8abonHwMyN8tfVs9F6exQ46oqRZZPQV191_sN75YpaBecccUCwW_Y6m00?></g></svg>
