<?xml version="1.0" encoding="us-ascii" standalone="no"?><svg xmlns="http://www.w3.org/2000/svg" xmlns:xlink="http://www.w3.org/1999/xlink" contentStyleType="text/css" height="274px" preserveAspectRatio="none" style="width:1253px;height:274px;background:#FFFFFF;" version="1.1" viewBox="0 0 1253 274" width="1253px" zoomAndPan="magnify"><defs/><g><!--entity arch--><g id="elem_arch"><rect fill="#F1F1F1" height="39.0679" rx="2.5" ry="2.5" style="stroke:#181818;stroke-width:0.5;" width="128" x="22.5" y="7"/><text fill="#000000" font-family="sans-serif" font-size="14" lengthAdjust="spacing" textLength="108" x="32.5" y="31.9659">public_api.puml</text></g><!--entity fm--><g id="elem_fm"><rect fill="#F1F1F1" height="39.0679" rx="2.5" ry="2.5" style="stroke:#181818;stroke-width:0.5;" width="135" x="19" y="81"/><text fill="#000000" font-family="sans-serif" font-size="14" lengthAdjust="spacing" textLength="115" x="29" y="105.9659">failuremodes.trlc</text></g><!--entity cm--><g id="elem_cm"><rect fill="#F1F1F1" height="39.0679" rx="2.5" ry="2.5" style="stroke:#181818;stroke-width:0.5;" width="159" x="7" y="155"/><text fill="#000000" font-family="sans-serif" font-size="14" lengthAdjust="spacing" textLength="139" x="17" y="179.9659">controlmeasures.trlc</text></g><!--entity fta--><g id="elem_fta"><rect fill="#F1F1F1" height="39.0679" rx="2.5" ry="2.5" style="stroke:#181818;stroke-width:0.5;" width="77" x="48" y="229"/><text fill="#000000" font-family="sans-serif" font-size="14" lengthAdjust="spacing" textLength="57" x="58" y="253.9659">fta.puml</text></g><!--entity arch_lob--><g id="elem_arch_lob"><rect fill="#F1F1F1" height="39.0679" rx="2.5" ry="2.5" style="stroke:#181818;stroke-width:0.5;" width="153" x="368.5" y="7"/><text fill="#000000" font-family="sans-serif" font-size="14" lengthAdjust="spacing" textLength="133" x="378.5" y="31.9659">architecture.lobster</text></g><!--entity fm_lob--><g id="elem_fm_lob"><rect fill="#F1F1F1" height="39.0679" rx="2.5" ry="2.5" style="stroke:#181818;stroke-width:0.5;" width="160" x="365" y="81"/><text fill="#000000" font-family="sans-serif" font-size="14" lengthAdjust="spacing" textLength="140" x="375" y="105.9659">failuremodes.lobster</text></g><!--entity cm_lob--><g id="elem_cm_lob"><rect fill="#F1F1F1" height="39.0679" rx="2.5" ry="2.5" style="stroke:#181818;stroke-width:0.5;" width="184" x="353" y="155"/><text fill="#000000" font-family="sans-serif" font-size="14" lengthAdjust="spacing" textLength="164" x="363" y="179.9659">controlmeasures.lobster</text></g><!--entity rc_lob--><g id="elem_rc_lob"><rect fill="#F1F1F1" height="39.0679" rx="2.5" ry="2.5" style="stroke:#181818;stroke-width:0.5;" width="150" x="370" y="229"/><text fill="#000000" font-family="sans-serif" font-size="14" lengthAdjust="spacing" textLength="130" x="380" y="253.9659">root_causes.lobster</text></g><!--entity conf--><g id="elem_conf"><rect fill="#F1F1F1" height="39.0679" rx="2.5" ry="2.5" style="stroke:#181818;stroke-width:0.5;" width="121" x="598" y="119"/><text fill="#000000" font-family="sans-serif" font-size="14" lengthAdjust="spacing" textLength="101" x="608" y="143.9659">lobster_sa.conf</text></g><!--entity json--><g id="elem_json"><rect fill="#F1F1F1" height="39.0679" rx="2.5" ry="2.5" style="stroke:#181818;stroke-width:0.5;" width="94" x="878" y="119"/><text fill="#000000" font-family="sans-serif" font-size="14" lengthAdjust="spacing" textLength="74" x="888" y="143.9659">report.json</text></g><!--entity html--><g id="elem_html"><rect fill="#F1F1F1" height="39.0679" rx="2.5" ry="2.5" style="stroke:#181818;stroke-width:0.5;" width="97" x="1150" y="119"/><text fill="#000000" font-family="sans-serif" font-size="14" lengthAdjust="spacing" textLength="77" x="1160" y="143.9659">report.html</text></g><!--link arch to arch_lob--><g id="link_arch_arch_lob"><path d="M150.82,26.5 C211.65,26.5 297.6,26.5 362.27,26.5 " fill="none" id="arch-to-arch_lob" style="stroke:#181818;stroke-width:1.0;"/><polygon fill="#181818" points="368.27,26.5,359.27,22.5,363.27,26.5,359.27,30.5,368.27,26.5" style="stroke:#181818;stroke-width:1.0;"/><text fill="#000000" font-family="sans-serif" font-size="13" lengthAdjust="spacing" textLength="75" x="222" y="22.397">puml_parser</text></g><!--link fm to fm_lob--><g id="link_fm_fm_lob"><path d="M154.14,100.5 C213.89,100.5 295.65,100.5 358.93,100.5 " fill="none" id="fm-to-fm_lob" style="stroke:#181818;stroke-width:1.0;"/><polygon fill="#181818" points="364.93,100.5,355.93,96.5,359.93,100.5,355.93,104.5,364.93,100.5" style="stroke:#181818;stroke-width:1.0;"/><text fill="#000000" font-family="sans-serif" font-size="13" lengthAdjust="spacing" textLength="65" x="227" y="96.397">lobster-trlc</text></g><!--link cm to cm_lob--><g id="link_cm_cm_lob"><path d="M166.18,174.5 C221.34,174.5 289.22,174.5 346.93,174.5 " fill="none" id="cm-to-cm_lob" style="stroke:#181818;stroke-width:1.0;"/><polygon fill="#181818" points="352.93,174.5,343.93,170.5,347.93,174.5,343.93,178.5,352.93,174.5" style="stroke:#181818;stroke-width:1.0;"/><text fill="#000000" font-family="sans-serif" font-size="13" lengthAdjust="spacing" textLength="65" x="227" y="170.397">lobster-trlc</text></g><!--link fta to rc_lob--><g id="link_fta_rc_lob"><path d="M125.31,248.5 C183.28,248.5 289.22,248.5 363.79,248.5 " fill="none" id="fta-to-rc_lob" style="stroke:#181818;stroke-width:1.0;"/><polygon fill="#181818" points="369.79,248.5,360.79,244.5,364.79,248.5,360.79,252.5,369.79,248.5" style="stroke:#181818;stroke-width:1.0;"/><text fill="#000000" font-family="sans-serif" font-size="13" lengthAdjust="spacing" textLength="125" x="197" y="244.397">safety_analysis_tools</text></g><!--link arch_lob to conf--><g id="link_arch_lob_conf"><path d="M498.66,46.13 C511.4,51.37 524.84,57.3 537,63.5 C569.71,80.18 600.176,99.5093 624.106,115.5493 " fill="none" id="arch_lob-to-conf" style="stroke:#181818;stroke-width:1.0;"/><polygon fill="#181818" points="629.09,118.89,623.8412,110.5563,624.9367,116.1061,619.3869,117.2016,629.09,118.89" style="stroke:#181818;stroke-width:1.0;"/></g><!--link fm_lob to conf--><g id="link_fm_lob_conf"><path d="M525.06,114.7 C549.11,119.03 569.2244,122.6398 591.7844,126.6898 " fill="none" id="fm_lob-to-conf" style="stroke:#181818;stroke-width:1.0;"/><polygon fill="#181818" points="597.69,127.75,589.5384,122.2227,592.7687,126.8665,588.1248,130.0968,597.69,127.75" style="stroke:#181818;stroke-width:1.0;"/></g><!--link cm_lob to conf--><g id="link_cm_lob_conf"><path d="M537.23,158.97 C557.8,155.47 573.205,152.8462 592.075,149.6362 " fill="none" id="cm_lob-to-conf" style="stroke:#181818;stroke-width:1.0;"/><polygon fill="#181818" points="597.99,148.63,588.4467,146.196,593.0608,149.4685,589.7883,154.0827,597.99,148.63" style="stroke:#181818;stroke-width:1.0;"/></g><!--link rc_lob to conf--><g id="link_rc_lob_conf"><path d="M498.13,228.96 C511.01,223.68 524.66,217.7 537,211.5 C569.13,195.36 599.0557,176.9544 623.0057,161.4244 " fill="none" id="rc_lob-to-conf" style="stroke:#181818;stroke-width:1.0;"/><polygon fill="#181818" points="628.04,158.16,618.3124,159.7004,623.8448,160.8803,622.6649,166.4128,628.04,158.16" style="stroke:#181818;stroke-width:1.0;"/></g><!--link conf to json--><g id="link_conf_json"><path d="M719.19,138.5 C767.18,138.5 827.65,138.5 871.69,138.5 " fill="none" id="conf-to-json" style="stroke:#181818;stroke-width:1.0;"/><polygon fill="#181818" points="877.69,138.5,868.69,134.5,872.69,138.5,868.69,142.5,877.69,138.5" style="stroke:#181818;stroke-width:1.0;"/><text fill="#000000" font-family="sans-serif" font-size="13" lengthAdjust="spacing" textLength="97" x="750" y="134.397">lobster-ci-report</text></g><!--link json to html--><g id="link_json_html"><path d="M972.06,138.5 C1021.53,138.5 1093.77,138.5 1143.85,138.5 " fill="none" id="json-to-html" style="stroke:#181818;stroke-width:1.0;"/><polygon fill="#181818" points="1149.85,138.5,1140.85,134.5,1144.85,138.5,1140.85,142.5,1149.85,138.5" style="stroke:#181818;stroke-width:1.0;"/><text fill="#000000" font-family="sans-serif" font-size="13" lengthAdjust="spacing" textLength="116" x="1003" y="134.397">lobster-html-report</text></g><!--SRC=[TP11SiCW34Ntd8B9tZv05xqAeoYGq07B8-H5Rb-46OUuwSRMvx-Hz9Ly42jaETuVOc-HFKganUWVbdlozh9krnJHmHhdTSlfOg5OO7oCJ82ODlQPRhxCmWaR5VB882t2bBA7Kj41mpSi2BpcL35wEZPArRN1dEXQnFEnZwiF_-uqmY6VqVDg8ur_Q2OIXx2L4ybu9hlh2inrHDZxrUAjcr-9PVufj3HVYm_-G_f9j3160zjf-ZwIso-hLtChSF5iGcxk7hLwVPD9ZsvmD_6ZMK_Ut3rDTGi4Bqy72wHdYSK9KIhccDiwQQO-wz1uqhtXow-VfZJni0N6QSzicg64PXu8bPtv1G00]--></g></svg>
