<?plantuml 1.2026.1?><svg xmlns="http://www.w3.org/2000/svg" xmlns:xlink="http://www.w3.org/1999/xlink" contentStyleType="text/css" data-diagram-type="CLASS" height="630px" preserveAspectRatio="none" style="width:3099px;height:630px;background:#FFFFFF;" version="1.1" viewBox="0 0 3099 630" width="3099px" zoomAndPan="magnify"><title>PUML Multi-File Parser - Class Diagram</title><defs/><g><g class="title" data-source-line="3"><text fill="#000000" font-family="sans-serif" font-size="14" font-weight="bold" lengthAdjust="spacing" textLength="270.4789" x="1407.2605" y="24.9659">PUML Multi-File Parser - Class Diagram</text></g><!--cluster Puml Parser--><g class="cluster" data-qualified-name="Puml Parser" data-source-line="5" id="ent0002"><path d="M8.5,46.6699 L94.3397,46.6699 A3.75,3.75 0 0 1 96.8397,49.1699 L103.8397,71.7378 L3089.5,71.7378 A2.5,2.5 0 0 1 3092,74.2378 L3092,621.1699 A2.5,2.5 0 0 1 3089.5,623.6699 L8.5,623.6699 A2.5,2.5 0 0 1 6,621.1699 L6,49.1699 A2.5,2.5 0 0 1 8.5,46.6699" fill="none" style="stroke:#000000;stroke-width:1.5;"/><line style="stroke:#000000;stroke-width:1.5;" x1="6" x2="103.8397" y1="71.7378" y2="71.7378"/><text fill="#000000" font-family="sans-serif" font-size="14" font-weight="bold" lengthAdjust="spacing" textLength="84.8397" x="10" y="63.6358">Puml Parser</text></g><!--cluster Command Line Interface--><g class="cluster" data-qualified-name="Puml Parser.Command Line Interface" data-source-line="7" id="ent0003"><path d="M1293.5,92.6699 L1467.7213,92.6699 A3.75,3.75 0 0 1 1470.2213,95.1699 L1477.2213,117.7378 L1977.5,117.7378 A2.5,2.5 0 0 1 1980,120.2378 L1980,268.1699 A2.5,2.5 0 0 1 1977.5,270.6699 L1293.5,270.6699 A2.5,2.5 0 0 1 1291,268.1699 L1291,95.1699 A2.5,2.5 0 0 1 1293.5,92.6699" fill="none" style="stroke:#000000;stroke-width:1.5;"/><line style="stroke:#000000;stroke-width:1.5;" x1="1291" x2="1477.2213" y1="117.7378" y2="117.7378"/><text fill="#000000" font-family="sans-serif" font-size="14" font-weight="bold" lengthAdjust="spacing" textLength="173.2213" x="1295" y="109.6358">Command Line Interface</text></g><!--cluster Include Parser--><g class="cluster" data-qualified-name="Puml Parser.Include Parser" data-source-line="21" id="ent0006"><path d="M2634.5,331.6699 L2736.7756,331.6699 A3.75,3.75 0 0 1 2739.2756,334.1699 L2746.2756,356.7378 L3065.5,356.7378 A2.5,2.5 0 0 1 3068,359.2378 L3068,463.1699 A2.5,2.5 0 0 1 3065.5,465.6699 L2634.5,465.6699 A2.5,2.5 0 0 1 2632,463.1699 L2632,334.1699 A2.5,2.5 0 0 1 2634.5,331.6699" fill="none" style="stroke:#000000;stroke-width:1.5;"/><line style="stroke:#000000;stroke-width:1.5;" x1="2632" x2="2746.2756" y1="356.7378" y2="356.7378"/><text fill="#000000" font-family="sans-serif" font-size="14" font-weight="bold" lengthAdjust="spacing" textLength="101.2756" x="2636" y="348.6358">Include Parser</text></g><!--cluster Parsing Layer (pest)--><g class="cluster" data-qualified-name="Puml Parser.Parsing Layer .pest." data-source-line="27" id="ent0008"><path d="M640.5,338.1699 L780.2955,338.1699 A3.75,3.75 0 0 1 782.7955,340.6699 L789.7955,363.2378 L1237.5,363.2378 A2.5,2.5 0 0 1 1240,365.7378 L1240,597.1699 A2.5,2.5 0 0 1 1237.5,599.6699 L640.5,599.6699 A2.5,2.5 0 0 1 638,597.1699 L638,340.6699 A2.5,2.5 0 0 1 640.5,338.1699" fill="none" style="stroke:#000000;stroke-width:1.5;"/><line style="stroke:#000000;stroke-width:1.5;" x1="638" x2="789.7955" y1="363.2378" y2="363.2378"/><text fill="#000000" font-family="sans-serif" font-size="14" font-weight="bold" lengthAdjust="spacing" textLength="138.7955" x="642" y="355.1358">Parsing Layer (pest)</text></g><!--cluster Semantic Resolution--><g class="cluster" data-qualified-name="Puml Parser.Semantic Resolution" data-source-line="42" id="ent0016"><path d="M32.5,121.1699 L176.8875,121.1699 A3.75,3.75 0 0 1 179.3875,123.6699 L186.3875,146.2378 L611.5,146.2378 A2.5,2.5 0 0 1 614,148.7378 L614,466.1699 A2.5,2.5 0 0 1 611.5,468.6699 L32.5,468.6699 A2.5,2.5 0 0 1 30,466.1699 L30,123.6699 A2.5,2.5 0 0 1 32.5,121.1699" fill="none" style="stroke:#000000;stroke-width:1.5;"/><line style="stroke:#000000;stroke-width:1.5;" x1="30" x2="186.3875" y1="146.2378" y2="146.2378"/><text fill="#000000" font-family="sans-serif" font-size="14" font-weight="bold" lengthAdjust="spacing" textLength="143.3875" x="34" y="138.1358">Semantic Resolution</text></g><!--cluster FlatBuffers Serialization--><g class="cluster" data-qualified-name="Puml Parser.FlatBuffers Serialization" data-source-line="56" id="ent0020"><path d="M1266.5,331.6699 L1435.7654,331.6699 A3.75,3.75 0 0 1 1438.2654,334.1699 L1445.2654,356.7378 L1849.5,356.7378 A2.5,2.5 0 0 1 1852,359.2378 L1852,463.1699 A2.5,2.5 0 0 1 1849.5,465.6699 L1266.5,465.6699 A2.5,2.5 0 0 1 1264,463.1699 L1264,334.1699 A2.5,2.5 0 0 1 1266.5,331.6699" fill="none" style="stroke:#000000;stroke-width:1.5;"/><line style="stroke:#000000;stroke-width:1.5;" x1="1264" x2="1445.2654" y1="356.7378" y2="356.7378"/><text fill="#000000" font-family="sans-serif" font-size="14" font-weight="bold" lengthAdjust="spacing" textLength="168.2654" x="1268" y="348.6358">FlatBuffers Serialization</text></g><!--cluster Lobster Output--><g class="cluster" data-qualified-name="Puml Parser.Lobster Output" data-source-line="62" id="ent0022"><path d="M1878.5,321.6699 L1986.7956,321.6699 A3.75,3.75 0 0 1 1989.2956,324.1699 L1996.2956,346.7378 L2605.5,346.7378 A2.5,2.5 0 0 1 2608,349.2378 L2608,473.1699 A2.5,2.5 0 0 1 2605.5,475.6699 L1878.5,475.6699 A2.5,2.5 0 0 1 1876,473.1699 L1876,324.1699 A2.5,2.5 0 0 1 1878.5,321.6699" fill="none" style="stroke:#000000;stroke-width:1.5;"/><line style="stroke:#000000;stroke-width:1.5;" x1="1876" x2="1996.2956" y1="346.7378" y2="346.7378"/><text fill="#000000" font-family="sans-serif" font-size="14" font-weight="bold" lengthAdjust="spacing" textLength="107.2956" x="1880" y="338.6358">Lobster Output</text></g><!--class DiagramType--><g class="entity" data-qualified-name="Puml Parser.Command Line Interface.DiagramType" data-source-line="8" id="ent0004"><rect fill="#F1F1F1" height="124.2717" rx="2.5" ry="2.5" style="stroke:#181818;stroke-width:0.5;" width="120.4517" x="1844" y="130.6699"/><ellipse cx="1859" cy="146.6699" fill="#EB937F" rx="11" ry="11" style="stroke:#181818;stroke-width:1;"/><path d="M1863.1094,152.6699 L1855.3906,152.6699 L1855.3906,140.2793 L1863.1094,140.2793 L1863.1094,142.4355 L1857.8438,142.4355 L1857.8438,145.1074 L1862.6094,145.1074 L1862.6094,147.2636 L1857.8438,147.2636 L1857.8438,150.5136 L1863.1094,150.5136 L1863.1094,152.6699 Z " fill="#000000"/><text fill="#000000" font-family="sans-serif" font-size="14" lengthAdjust="spacing" textLength="88.4517" x="1873" y="152.1019">DiagramType</text><line style="stroke:#181818;stroke-width:0.5;" x1="1845" x2="1963.4517" y1="162.6699" y2="162.6699"/><text fill="#000000" font-family="sans-serif" font-size="14" lengthAdjust="spacing" textLength="39.9978" x="1850" y="181.6358">NONE</text><text fill="#000000" font-family="sans-serif" font-size="14" lengthAdjust="spacing" textLength="88.7316" x="1850" y="200.7038">COMPONENT</text><text fill="#000000" font-family="sans-serif" font-size="14" lengthAdjust="spacing" textLength="40.5018" x="1850" y="219.7717">CLASS</text><text fill="#000000" font-family="sans-serif" font-size="14" lengthAdjust="spacing" textLength="71.6937" x="1850" y="238.8396">SEQUENCE</text><line style="stroke:#181818;stroke-width:0.5;" x1="1845" x2="1963.4517" y1="246.9416" y2="246.9416"/></g><!--class CLI--><g class="entity" data-qualified-name="Puml Parser.Command Line Interface.CLI" data-source-line="15" id="ent0005"><rect fill="#F1F1F1" height="86.1358" rx="2.5" ry="2.5" style="stroke:#181818;stroke-width:0.5;" width="501.1582" x="1307.5" y="149.6699"/><ellipse cx="1543.3641" cy="165.6699" fill="#F1F1F1" rx="11" ry="11" style="stroke:#181818;stroke-width:1;"/><path d="M1542.8485,166.2324 Q1540.9891,165.5293 1540.3329,164.7636 Q1539.6923,163.9824 1539.6923,162.6699 Q1539.6923,160.9824 1540.7704,160.0136 Q1541.8485,159.0449 1543.7235,159.0449 Q1544.5829,159.0449 1545.4266,159.248 Q1546.286,159.4355 1547.1298,159.8261 L1547.1298,162.2168 Q1546.3485,161.6543 1545.5204,161.373 Q1544.7079,161.0761 1543.911,161.0761 Q1543.036,161.0761 1542.5516,161.4355 Q1542.0829,161.7949 1542.0829,162.4511 Q1542.0829,162.9668 1542.4266,163.3105 Q1542.7704,163.6386 1543.8641,164.0449 L1544.9266,164.4511 Q1546.411,164.998 1547.1141,165.9043 Q1547.8329,166.8105 1547.8329,168.1855 Q1547.8329,170.0605 1546.7235,170.9824 Q1545.6141,171.9043 1543.3641,171.9043 Q1542.4423,171.9043 1541.5204,171.6855 Q1540.5985,171.4668 1539.7391,171.0449 L1539.7391,168.5136 Q1540.7079,169.2011 1541.6298,169.5449 Q1542.5516,169.8886 1543.4423,169.8886 Q1544.3485,169.8886 1544.8485,169.4824 Q1545.3485,169.0605 1545.3485,168.3261 Q1545.3485,167.7636 1545.0048,167.3574 Q1544.6766,166.9355 1544.0516,166.6855 L1542.8485,166.2324 Z " fill="#000000"/><text fill="#000000" font-family="sans-serif" font-size="14" lengthAdjust="spacing" textLength="20.9299" x="1563.8641" y="171.1019">CLI</text><line style="stroke:#181818;stroke-width:0.5;" x1="1308.5" x2="1807.6582" y1="181.6699" y2="181.6699"/><line style="stroke:#181818;stroke-width:0.5;" x1="1308.5" x2="1807.6582" y1="189.6699" y2="189.6699"/><g data-visibility-modifier="PUBLIC_METHOD"><ellipse cx="1318.5" cy="204.7039" fill="#84BE84" rx="3" ry="3" style="stroke:#038048;stroke-width:1;"/></g><text fill="#000000" font-family="sans-serif" font-size="14" lengthAdjust="spacing" textLength="194.9073" x="1327.5" y="208.6358">main(args: List&lt;String&gt;) : void</text><g data-visibility-modifier="PRIVATE_METHOD"><rect fill="#F24D5C" height="6" style="stroke:#C82930;stroke-width:1;" width="6" x="1315.5" y="220.7718"/></g><text fill="#000000" font-family="sans-serif" font-size="14" lengthAdjust="spacing" textLength="475.1582" x="1327.5" y="227.7038">parse_puml_file(path, content, log_level, diagram_type) : ParsedDiagram</text></g><!--class Preprocessor--><g class="entity" data-qualified-name="Puml Parser.Include Parser.Preprocessor" data-source-line="22" id="ent0007"><rect fill="#F1F1F1" height="80.4799" rx="2.5" ry="2.5" style="stroke:#181818;stroke-width:0.5;" width="402.6826" x="2648.5" y="369.6699"/><ellipse cx="2801.9464" cy="392.3759" fill="#F1F1F1" rx="11" ry="11" style="stroke:#181818;stroke-width:1;"/><path d="M2801.4308,392.9384 Q2799.5714,392.2353 2798.9152,391.4697 Q2798.2746,390.6884 2798.2746,389.3759 Q2798.2746,387.6884 2799.3527,386.7197 Q2800.4308,385.7509 2802.3058,385.7509 Q2803.1652,385.7509 2804.0089,385.954 Q2804.8683,386.1415 2805.7121,386.5322 L2805.7121,388.9228 Q2804.9308,388.3603 2804.1027,388.079 Q2803.2902,387.7822 2802.4933,387.7822 Q2801.6183,387.7822 2801.1339,388.1415 Q2800.6652,388.5009 2800.6652,389.1572 Q2800.6652,389.6728 2801.0089,390.0165 Q2801.3527,390.3447 2802.4464,390.7509 L2803.5089,391.1572 Q2804.9933,391.704 2805.6964,392.6103 Q2806.4152,393.5165 2806.4152,394.8915 Q2806.4152,396.7665 2805.3058,397.6884 Q2804.1964,398.6103 2801.9464,398.6103 Q2801.0246,398.6103 2800.1027,398.3915 Q2799.1808,398.1728 2798.3214,397.7509 L2798.3214,395.2197 Q2799.2902,395.9072 2800.2121,396.2509 Q2801.1339,396.5947 2802.0246,396.5947 Q2802.9308,396.5947 2803.4308,396.1884 Q2803.9308,395.7665 2803.9308,395.0322 Q2803.9308,394.4697 2803.5871,394.0634 Q2803.2589,393.6415 2802.6339,393.3915 L2801.4308,392.9384 Z " fill="#000000"/><text fill="#000000" font-family="sans-serif" font-size="12" font-style="italic" lengthAdjust="spacing" textLength="69.4325" x="2831.3751" y="387.498">&#171;preprocess&#187;</text><text fill="#000000" font-family="sans-serif" font-size="14" lengthAdjust="spacing" textLength="87.2897" x="2822.4464" y="405.9799">Preprocessor</text><line style="stroke:#181818;stroke-width:0.5;" x1="2649.5" x2="3050.1826" y1="415.0819" y2="415.0819"/><line style="stroke:#181818;stroke-width:0.5;" x1="2649.5" x2="3050.1826" y1="423.0819" y2="423.0819"/><g data-visibility-modifier="PUBLIC_METHOD"><ellipse cx="2659.5" cy="438.1159" fill="#84BE84" rx="3" ry="3" style="stroke:#038048;stroke-width:1;"/></g><text fill="#000000" font-family="sans-serif" font-size="14" lengthAdjust="spacing" textLength="376.6826" x="2668.5" y="442.0479">preprocess(file_list, log_level): HashMap&lt;PathBuf, String&gt;</text></g><!--class DiagramParser--><g class="entity" data-qualified-name="Puml Parser.Parsing Layer .pest..DiagramParser" data-source-line="28" id="ent0009"><rect fill="#F1F1F1" height="67.0679" rx="2.5" ry="2.5" style="stroke:#181818;stroke-width:0.5;" width="307.8749" x="839" y="376.1699"/><ellipse cx="941.2626" cy="392.1699" fill="#B4A7E5" rx="11" ry="11" style="stroke:#181818;stroke-width:1;"/><path d="M937.1845,387.9355 L937.1845,385.7793 L944.5751,385.7793 L944.5751,387.9355 L942.1064,387.9355 L942.1064,396.0136 L944.5751,396.0136 L944.5751,398.1699 L937.1845,398.1699 L937.1845,396.0136 L939.6533,396.0136 L939.6533,387.9355 L937.1845,387.9355 Z " fill="#000000"/><text fill="#000000" font-family="sans-serif" font-size="14" font-style="italic" lengthAdjust="spacing" textLength="94.8496" x="961.7626" y="397.6019">DiagramParser</text><line style="stroke:#181818;stroke-width:0.5;" x1="840" x2="1145.8749" y1="408.1699" y2="408.1699"/><line style="stroke:#181818;stroke-width:0.5;" x1="840" x2="1145.8749" y1="416.1699" y2="416.1699"/><g data-visibility-modifier="PUBLIC_METHOD"><ellipse cx="850" cy="431.2039" fill="#84BE84" rx="3" ry="3" style="stroke:#038048;stroke-width:1;"/></g><text fill="#000000" font-family="sans-serif" font-size="14" lengthAdjust="spacing" textLength="281.8749" x="859" y="435.1358">parse_file(path, content, log_level) : Output</text></g><!--class PumlClassParser--><g class="entity" data-qualified-name="Puml Parser.Parsing Layer .pest..PumlClassParser" data-source-line="32" id="ent0010"><rect fill="#F1F1F1" height="61.412" rx="2.5" ry="2.5" style="stroke:#181818;stroke-width:0.5;" width="142.0396" x="654" y="522.6699"/><ellipse cx="669" cy="545.3759" fill="#F1F1F1" rx="11" ry="11" style="stroke:#181818;stroke-width:1;"/><path d="M668.4844,545.9384 Q666.625,545.2353 665.9688,544.4697 Q665.3281,543.6884 665.3281,542.3759 Q665.3281,540.6884 666.4063,539.7197 Q667.4844,538.7509 669.3594,538.7509 Q670.2188,538.7509 671.0625,538.954 Q671.9219,539.1415 672.7656,539.5322 L672.7656,541.9228 Q671.9844,541.3603 671.1563,541.079 Q670.3438,540.7822 669.5469,540.7822 Q668.6719,540.7822 668.1875,541.1415 Q667.7188,541.5009 667.7188,542.1572 Q667.7188,542.6728 668.0625,543.0165 Q668.4063,543.3447 669.5,543.7509 L670.5625,544.1572 Q672.0469,544.704 672.75,545.6103 Q673.4688,546.5165 673.4688,547.8915 Q673.4688,549.7665 672.3594,550.6884 Q671.25,551.6103 669,551.6103 Q668.0781,551.6103 667.1563,551.3915 Q666.2344,551.1728 665.375,550.7509 L665.375,548.2197 Q666.3438,548.9072 667.2656,549.2509 Q668.1875,549.5947 669.0781,549.5947 Q669.9844,549.5947 670.4844,549.1884 Q670.9844,548.7665 670.9844,548.0322 Q670.9844,547.4697 670.6406,547.0634 Q670.3125,546.6415 669.6875,546.3915 L668.4844,545.9384 Z " fill="#000000"/><text fill="#000000" font-family="sans-serif" font-size="12" font-style="italic" lengthAdjust="spacing" textLength="45.9363" x="715.0516" y="540.498">&#171;parser&#187;</text><text fill="#000000" font-family="sans-serif" font-size="14" lengthAdjust="spacing" textLength="110.0396" x="683" y="558.9799">PumlClassParser</text><line style="stroke:#181818;stroke-width:0.5;" x1="655" x2="795.0396" y1="568.0819" y2="568.0819"/><line style="stroke:#181818;stroke-width:0.5;" x1="655" x2="795.0396" y1="576.0819" y2="576.0819"/></g><!--class PumlSequenceParser--><g class="entity" data-qualified-name="Puml Parser.Parsing Layer .pest..PumlSequenceParser" data-source-line="33" id="ent0011"><rect fill="#F1F1F1" height="61.412" rx="2.5" ry="2.5" style="stroke:#181818;stroke-width:0.5;" width="172.3215" x="831" y="522.6699"/><ellipse cx="846" cy="545.3759" fill="#F1F1F1" rx="11" ry="11" style="stroke:#181818;stroke-width:1;"/><path d="M845.4844,545.9384 Q843.625,545.2353 842.9688,544.4697 Q842.3281,543.6884 842.3281,542.3759 Q842.3281,540.6884 843.4063,539.7197 Q844.4844,538.7509 846.3594,538.7509 Q847.2188,538.7509 848.0625,538.954 Q848.9219,539.1415 849.7656,539.5322 L849.7656,541.9228 Q848.9844,541.3603 848.1563,541.079 Q847.3438,540.7822 846.5469,540.7822 Q845.6719,540.7822 845.1875,541.1415 Q844.7188,541.5009 844.7188,542.1572 Q844.7188,542.6728 845.0625,543.0165 Q845.4063,543.3447 846.5,543.7509 L847.5625,544.1572 Q849.0469,544.704 849.75,545.6103 Q850.4688,546.5165 850.4688,547.8915 Q850.4688,549.7665 849.3594,550.6884 Q848.25,551.6103 846,551.6103 Q845.0781,551.6103 844.1563,551.3915 Q843.2344,551.1728 842.375,550.7509 L842.375,548.2197 Q843.3438,548.9072 844.2656,549.2509 Q845.1875,549.5947 846.0781,549.5947 Q846.9844,549.5947 847.4844,549.1884 Q847.9844,548.7665 847.9844,548.0322 Q847.9844,547.4697 847.6406,547.0634 Q847.3125,546.6415 846.6875,546.3915 L845.4844,545.9384 Z " fill="#000000"/><text fill="#000000" font-family="sans-serif" font-size="12" font-style="italic" lengthAdjust="spacing" textLength="45.9363" x="907.1926" y="540.498">&#171;parser&#187;</text><text fill="#000000" font-family="sans-serif" font-size="14" lengthAdjust="spacing" textLength="140.3215" x="860" y="558.9799">PumlSequenceParser</text><line style="stroke:#181818;stroke-width:0.5;" x1="832" x2="1002.3215" y1="568.0819" y2="568.0819"/><line style="stroke:#181818;stroke-width:0.5;" x1="832" x2="1002.3215" y1="576.0819" y2="576.0819"/></g><!--class PumlComponentParser--><g class="entity" data-qualified-name="Puml Parser.Parsing Layer .pest..PumlComponentParser" data-source-line="34" id="ent0012"><rect fill="#F1F1F1" height="61.412" rx="2.5" ry="2.5" style="stroke:#181818;stroke-width:0.5;" width="186.0554" x="1038" y="522.6699"/><ellipse cx="1053" cy="545.3759" fill="#F1F1F1" rx="11" ry="11" style="stroke:#181818;stroke-width:1;"/><path d="M1052.4844,545.9384 Q1050.625,545.2353 1049.9688,544.4697 Q1049.3281,543.6884 1049.3281,542.3759 Q1049.3281,540.6884 1050.4063,539.7197 Q1051.4844,538.7509 1053.3594,538.7509 Q1054.2188,538.7509 1055.0625,538.954 Q1055.9219,539.1415 1056.7656,539.5322 L1056.7656,541.9228 Q1055.9844,541.3603 1055.1563,541.079 Q1054.3438,540.7822 1053.5469,540.7822 Q1052.6719,540.7822 1052.1875,541.1415 Q1051.7188,541.5009 1051.7188,542.1572 Q1051.7188,542.6728 1052.0625,543.0165 Q1052.4063,543.3447 1053.5,543.7509 L1054.5625,544.1572 Q1056.0469,544.704 1056.75,545.6103 Q1057.4688,546.5165 1057.4688,547.8915 Q1057.4688,549.7665 1056.3594,550.6884 Q1055.25,551.6103 1053,551.6103 Q1052.0781,551.6103 1051.1563,551.3915 Q1050.2344,551.1728 1049.375,550.7509 L1049.375,548.2197 Q1050.3438,548.9072 1051.2656,549.2509 Q1052.1875,549.5947 1053.0781,549.5947 Q1053.9844,549.5947 1054.4844,549.1884 Q1054.9844,548.7665 1054.9844,548.0322 Q1054.9844,547.4697 1054.6406,547.0634 Q1054.3125,546.6415 1053.6875,546.3915 L1052.4844,545.9384 Z " fill="#000000"/><text fill="#000000" font-family="sans-serif" font-size="12" font-style="italic" lengthAdjust="spacing" textLength="45.9363" x="1121.0595" y="540.498">&#171;parser&#187;</text><text fill="#000000" font-family="sans-serif" font-size="14" lengthAdjust="spacing" textLength="154.0554" x="1067" y="558.9799">PumlComponentParser</text><line style="stroke:#181818;stroke-width:0.5;" x1="1039" x2="1223.0554" y1="568.0819" y2="568.0819"/><line style="stroke:#181818;stroke-width:0.5;" x1="1039" x2="1223.0554" y1="576.0819" y2="576.0819"/></g><!--class DiagramResolver--><g class="entity" data-qualified-name="Puml Parser.Semantic Resolution.DiagramResolver" data-source-line="43" id="ent0017"><rect fill="#F1F1F1" height="67.0679" rx="2.5" ry="2.5" style="stroke:#181818;stroke-width:0.5;" width="258.9871" x="192.5" y="159.1699"/><ellipse cx="264.5297" cy="175.1699" fill="#B4A7E5" rx="11" ry="11" style="stroke:#181818;stroke-width:1;"/><path d="M260.4516,170.9355 L260.4516,168.7793 L267.8422,168.7793 L267.8422,170.9355 L265.3735,170.9355 L265.3735,179.0136 L267.8422,179.0136 L267.8422,181.1699 L260.4516,181.1699 L260.4516,179.0136 L262.9204,179.0136 L262.9204,170.9355 L260.4516,170.9355 Z " fill="#000000"/><text fill="#000000" font-family="sans-serif" font-size="14" font-style="italic" lengthAdjust="spacing" textLength="106.4276" x="285.0297" y="180.6019">DiagramResolver</text><line style="stroke:#181818;stroke-width:0.5;" x1="193.5" x2="450.4871" y1="191.1699" y2="191.1699"/><line style="stroke:#181818;stroke-width:0.5;" x1="193.5" x2="450.4871" y1="199.1699" y2="199.1699"/><g data-visibility-modifier="PUBLIC_METHOD"><ellipse cx="203.5" cy="214.2039" fill="#84BE84" rx="3" ry="3" style="stroke:#038048;stroke-width:1;"/></g><text fill="#000000" font-family="sans-serif" font-size="14" lengthAdjust="spacing" textLength="232.9871" x="212.5" y="218.1358">visit_document(document) : Output</text></g><!--class ComponentResolver--><g class="entity" data-qualified-name="Puml Parser.Semantic Resolution.ComponentResolver" data-source-line="47" id="ent0018"><rect fill="#F1F1F1" height="86.1358" rx="2.5" ry="2.5" style="stroke:#181818;stroke-width:0.5;" width="551.53" x="46" y="366.6699"/><ellipse cx="250.5533" cy="382.6699" fill="#ADD1B2" rx="11" ry="11" style="stroke:#181818;stroke-width:1;"/><path d="M253.522,388.3105 Q252.9439,388.6074 252.3033,388.748 Q251.6627,388.9043 250.9595,388.9043 Q248.4595,388.9043 247.1314,387.2636 Q245.8189,385.6074 245.8189,382.4824 Q245.8189,379.3574 247.1314,377.7011 Q248.4595,376.0449 250.9595,376.0449 Q251.6627,376.0449 252.3033,376.2011 Q252.9595,376.3574 253.522,376.6543 L253.522,379.373 Q252.897,378.7949 252.3033,378.5293 Q251.7095,378.248 251.0845,378.248 Q249.7408,378.248 249.0533,379.3261 Q248.3658,380.3886 248.3658,382.4824 Q248.3658,384.5761 249.0533,385.6543 Q249.7408,386.7168 251.0845,386.7168 Q251.7095,386.7168 252.3033,386.4511 Q252.897,386.1699 253.522,385.5918 L253.522,388.3105 Z " fill="#000000"/><text fill="#000000" font-family="sans-serif" font-size="14" lengthAdjust="spacing" textLength="133.9235" x="271.0533" y="388.1019">ComponentResolver</text><line style="stroke:#181818;stroke-width:0.5;" x1="47" x2="596.53" y1="398.6699" y2="398.6699"/><line style="stroke:#181818;stroke-width:0.5;" x1="47" x2="596.53" y1="406.6699" y2="406.6699"/><g data-visibility-modifier="PUBLIC_METHOD"><ellipse cx="57" cy="421.7039" fill="#84BE84" rx="3" ry="3" style="stroke:#038048;stroke-width:1;"/></g><text fill="#000000" font-family="sans-serif" font-size="14" lengthAdjust="spacing" textLength="180.9073" x="66" y="425.6358">new() : ComponentResolver</text><g data-visibility-modifier="PUBLIC_METHOD"><ellipse cx="57" cy="440.7718" fill="#84BE84" rx="3" ry="3" style="stroke:#038048;stroke-width:1;"/></g><text fill="#000000" font-family="sans-serif" font-size="14" lengthAdjust="spacing" textLength="525.53" x="66" y="444.7038">visit_document(ast: CompPumlDocument) : HashMap&lt;String, LogicComponent&gt;</text></g><!--class ComponentSerializer--><g class="entity" data-qualified-name="Puml Parser.FlatBuffers Serialization.ComponentSerializer" data-source-line="57" id="ent0021"><rect fill="#F1F1F1" height="80.4799" rx="2.5" ry="2.5" style="stroke:#181818;stroke-width:0.5;" width="554.736" x="1280.5" y="369.6699"/><ellipse cx="1484.5912" cy="392.3759" fill="#ADD1B2" rx="11" ry="11" style="stroke:#181818;stroke-width:1;"/><path d="M1487.56,398.0165 Q1486.9819,398.3134 1486.3412,398.454 Q1485.7006,398.6103 1484.9975,398.6103 Q1482.4975,398.6103 1481.1694,396.9697 Q1479.8569,395.3134 1479.8569,392.1884 Q1479.8569,389.0634 1481.1694,387.4072 Q1482.4975,385.7509 1484.9975,385.7509 Q1485.7006,385.7509 1486.3412,385.9072 Q1486.9975,386.0634 1487.56,386.3603 L1487.56,389.079 Q1486.935,388.5009 1486.3412,388.2353 Q1485.7475,387.954 1485.1225,387.954 Q1483.7787,387.954 1483.0912,389.0322 Q1482.4037,390.0947 1482.4037,392.1884 Q1482.4037,394.2822 1483.0912,395.3603 Q1483.7787,396.4228 1485.1225,396.4228 Q1485.7475,396.4228 1486.3412,396.1572 Q1486.935,395.8759 1487.56,395.2978 L1487.56,398.0165 Z " fill="#000000"/><text fill="#000000" font-family="sans-serif" font-size="12" font-style="italic" lengthAdjust="spacing" textLength="59.6044" x="1544.3158" y="387.498">&#171;serializer&#187;</text><text fill="#000000" font-family="sans-serif" font-size="14" lengthAdjust="spacing" textLength="138.0535" x="1505.0912" y="405.9799">ComponentSerializer</text><line style="stroke:#181818;stroke-width:0.5;" x1="1281.5" x2="1834.236" y1="415.0819" y2="415.0819"/><line style="stroke:#181818;stroke-width:0.5;" x1="1281.5" x2="1834.236" y1="423.0819" y2="423.0819"/><g data-visibility-modifier="PUBLIC_METHOD"><ellipse cx="1291.5" cy="438.1159" fill="#84BE84" rx="3" ry="3" style="stroke:#038048;stroke-width:1;"/></g><text fill="#000000" font-family="sans-serif" font-size="14" lengthAdjust="spacing" textLength="528.736" x="1300.5" y="442.0479">serialize(model: HashMap&lt;String, LogicComponent&gt;, source_file: &amp;str) : Vec&lt;u8&gt;</text></g><!--class LobsterWriter--><g class="entity" data-qualified-name="Puml Parser.Lobster Output.LobsterWriter" data-source-line="63" id="ent0023"><rect fill="#F1F1F1" height="99.5479" rx="2.5" ry="2.5" style="stroke:#181818;stroke-width:0.5;" width="700.0555" x="1892" y="359.6699"/><ellipse cx="2192.2779" cy="382.3759" fill="#ADD1B2" rx="11" ry="11" style="stroke:#181818;stroke-width:1;"/><path d="M2195.2467,388.0165 Q2194.6686,388.3134 2194.0279,388.454 Q2193.3873,388.6103 2192.6842,388.6103 Q2190.1842,388.6103 2188.8561,386.9697 Q2187.5436,385.3134 2187.5436,382.1884 Q2187.5436,379.0634 2188.8561,377.4072 Q2190.1842,375.7509 2192.6842,375.7509 Q2193.3873,375.7509 2194.0279,375.9072 Q2194.6842,376.0634 2195.2467,376.3603 L2195.2467,379.079 Q2194.6217,378.5009 2194.0279,378.2353 Q2193.4342,377.954 2192.8092,377.954 Q2191.4654,377.954 2190.7779,379.0322 Q2190.0904,380.0947 2190.0904,382.1884 Q2190.0904,384.2822 2190.7779,385.3603 Q2191.4654,386.4228 2192.8092,386.4228 Q2193.4342,386.4228 2194.0279,386.1572 Q2194.6217,385.8759 2195.2467,385.2978 L2195.2467,388.0165 Z " fill="#000000"/><text fill="#000000" font-family="sans-serif" font-size="12" font-style="italic" lengthAdjust="spacing" textLength="42.7443" x="2236.9056" y="377.498">&#171;writer&#187;</text><text fill="#000000" font-family="sans-serif" font-size="14" lengthAdjust="spacing" textLength="90.9997" x="2212.7779" y="395.9799">LobsterWriter</text><line style="stroke:#181818;stroke-width:0.5;" x1="1893" x2="2591.0555" y1="405.0819" y2="405.0819"/><line style="stroke:#181818;stroke-width:0.5;" x1="1893" x2="2591.0555" y1="413.0819" y2="413.0819"/><g data-visibility-modifier="PUBLIC_METHOD"><ellipse cx="1903" cy="428.1159" fill="#84BE84" rx="3" ry="3" style="stroke:#038048;stroke-width:1;"/></g><text fill="#000000" font-family="sans-serif" font-size="14" lengthAdjust="spacing" textLength="579.9059" x="1912" y="432.0479">model_to_lobster(model: HashMap&lt;String, LogicComponent&gt;, source_path: &amp;str) : Value</text><g data-visibility-modifier="PUBLIC_METHOD"><ellipse cx="1903" cy="447.1838" fill="#84BE84" rx="3" ry="3" style="stroke:#038048;stroke-width:1;"/></g><text fill="#000000" font-family="sans-serif" font-size="14" lengthAdjust="spacing" textLength="674.0555" x="1912" y="451.1158">write_lobster_to_file(model: HashMap&lt;String, LogicComponent&gt;, source_path: &amp;str, output_dir: &amp;Path)</text></g><!--reverse link DiagramParser to PumlClassParser--><g class="link" data-entity-1="ent0009" data-entity-2="ent0010" data-link-type="extension" data-source-line="36" id="lnk13"><path codeLine="36" d="M915.2621,451.7135 C869.9721,475.6235 824.91,499.4199 781.04,522.5799" fill="none" id="DiagramParser-backto-PumlClassParser" style="stroke:#181818;stroke-width:1;stroke-dasharray:7,7;"/><polygon fill="none" points="931.18,443.3099,912.4609,446.4075,918.0633,457.0194,931.18,443.3099" style="stroke:#181818;stroke-width:1;"/></g><!--reverse link DiagramParser to PumlSequenceParser--><g class="link" data-entity-1="ent0009" data-entity-2="ent0011" data-link-type="extension" data-source-line="37" id="lnk14"><path codeLine="37" d="M966.8553,459.3486 C954.0553,483.1886 945.38,499.3199 932.98,522.4199" fill="none" id="DiagramParser-backto-PumlSequenceParser" style="stroke:#181818;stroke-width:1;stroke-dasharray:7,7;"/><polygon fill="none" points="975.37,443.4899,961.569,456.5104,972.1415,462.1869,975.37,443.4899" style="stroke:#181818;stroke-width:1;"/></g><!--reverse link DiagramParser to PumlComponentParser--><g class="link" data-entity-1="ent0009" data-entity-2="ent0012" data-link-type="extension" data-source-line="38" id="lnk15"><path codeLine="38" d="M1037.5775,456.3763 C1060.8275,480.2163 1079.46,499.3199 1101.99,522.4199" fill="none" id="DiagramParser-backto-PumlComponentParser" style="stroke:#181818;stroke-width:1;stroke-dasharray:7,7;"/><polygon fill="none" points="1025.01,443.4899,1033.282,460.5654,1041.8729,452.1871,1025.01,443.4899" style="stroke:#181818;stroke-width:1;"/></g><!--reverse link DiagramResolver to ComponentResolver--><g class="link" data-entity-1="ent0017" data-entity-2="ent0018" data-link-type="extension" data-source-line="52" id="lnk19"><path codeLine="52" d="M322,244.3199 C322,281.7999 322,325.3599 322,366.4499" fill="none" id="DiagramResolver-backto-ComponentResolver" style="stroke:#181818;stroke-width:1;stroke-dasharray:7,7;"/><polygon fill="none" points="322,226.3199,316,244.3199,328,244.3199,322,226.3199" style="stroke:#181818;stroke-width:1;"/></g><!--link CLI to Preprocessor--><g class="link" data-entity-1="ent0005" data-entity-2="ent0007" data-link-type="dependency" data-source-line="71" id="lnk24"><path codeLine="71" d="M1667.92,235.6899 C1716.02,252.1599 1773.57,269.3299 1827,278.6699 C1870.82,286.3299 1982.56,284.7499 2027,286.6699 C2285.26,297.8399 2355.19,259.7199 2608,313.6699 C2663.95,325.6099 2718.3398,346.577 2764.5298,367.167" fill="none" id="CLI-to-Preprocessor" style="stroke:#181818;stroke-width:1;"/><polygon fill="#181818" points="2770.01,369.6099,2763.4183,362.2921,2765.4432,367.5742,2760.1611,369.599,2770.01,369.6099" style="stroke:#181818;stroke-width:1;"/><text fill="#000000" font-family="sans-serif" font-size="13" lengthAdjust="spacing" textLength="67.951" x="2565" y="301.5669">preprocess</text></g><!--link CLI to DiagramParser--><g class="link" data-entity-1="ent0005" data-entity-2="ent0009" data-link-type="dependency" data-source-line="72" id="lnk25"><path codeLine="72" d="M1447.38,235.7599 C1339.28,276.8999 1182.6077,336.5159 1084.0677,374.0159" fill="none" id="CLI-to-DiagramParser" style="stroke:#181818;stroke-width:1;"/><polygon fill="#181818" points="1078.46,376.1499,1088.2942,376.6873,1083.1331,374.3715,1085.4488,369.2104,1078.46,376.1499" style="stroke:#181818;stroke-width:1;"/><text fill="#000000" font-family="sans-serif" font-size="13" lengthAdjust="spacing" textLength="51.8311" x="1310" y="301.5669">dispatch</text></g><!--link CLI to ComponentResolver--><g class="link" data-entity-1="ent0005" data-entity-2="ent0018" data-link-type="dependency" data-source-line="73" id="lnk26"><path codeLine="73" d="M1307.21,215.2899 C1121.17,233.9999 862.05,265.7099 638,313.6699 C573.44,327.4899 508.6758,346.2951 450.6958,364.8051" fill="none" id="CLI-to-ComponentResolver" style="stroke:#181818;stroke-width:1;"/><polygon fill="#181818" points="444.98,366.6299,454.7702,367.7033,449.7432,365.1093,452.3372,360.0822,444.98,366.6299" style="stroke:#181818;stroke-width:1;"/><text fill="#000000" font-family="sans-serif" font-size="13" lengthAdjust="spacing" textLength="92.3521" x="763" y="301.5669">visit_document</text></g><!--link CLI to ComponentSerializer--><g class="link" data-entity-1="ent0005" data-entity-2="ent0021" data-link-type="dependency" data-source-line="74" id="lnk27"><path codeLine="74" d="M1558,235.8899 C1558,274.6599 1558,325.6499 1558,363.4399" fill="none" id="CLI-to-ComponentSerializer" style="stroke:#181818;stroke-width:1;"/><polygon fill="#181818" points="1558,369.4399,1562,360.4399,1558,364.4399,1554,360.4399,1558,369.4399" style="stroke:#181818;stroke-width:1;"/><text fill="#000000" font-family="sans-serif" font-size="13" lengthAdjust="spacing" textLength="49.725" x="1559" y="301.5669">serialize</text></g><!--link CLI to LobsterWriter--><g class="link" data-entity-1="ent0005" data-entity-2="ent0023" data-link-type="dependency" data-source-line="75" id="lnk28"><path codeLine="75" d="M1690.7,235.6699 C1734.13,249.3999 1782.62,264.7099 1827,278.6699 C1912.16,305.4599 2001.4739,333.4478 2079.0839,357.7378" fill="none" id="CLI-to-LobsterWriter" style="stroke:#181818;stroke-width:1;"/><polygon fill="#181818" points="2084.81,359.5299,2077.4156,353.0243,2080.0382,358.0365,2075.0261,360.6591,2084.81,359.5299" style="stroke:#181818;stroke-width:1;"/><text fill="#000000" font-family="sans-serif" font-size="13" lengthAdjust="spacing" textLength="111.4881" x="1907" y="301.5669">write lobster trace</text></g><?plantuml-src dLLDZzem4BtdLupsqB8gxBcA45BBxgf8mD9cjpr6hZE0jOwTsWve-_7VEmv9o0U5jZuvzhFdpPitZdqMAcE6fS1rccc5oaNkHI8Ov8wfZSJ0rX2xPOdU2xM1DPCM0oSS8LTFYpaiSkd4w5xuRsOi6XZ1L39huLQm3HqEWepnPxP1k5hbgInHL_0Z2816lJdLQSfK0dEX46RAeLapZXu7vK2LfzMjZoyPDhRyM3uixreBquV5YjQMZ-tL-RieQgr4Tn-VxfRJu-5VGJsrpkJS4Rlvx0gOfTCpwCHz0oaJQi3CneR4thfnv0nfDRc647PQ92tqY38c0UACj8ZN9DiWOsuxf2fGoieDGUfDB767SWZ98TVOKRB-iaAwfDBroBR1kPPpfhZC4sp8tKbfPJ0pcgErsi1udDMVaqalmUFcm5EE9MNPO7eTmWTcjmkMZLUKpFjyFOHIWmiiFJjlgpbx8USCChJkkibLL3wewbvwh4UmqFIid5x0XznbkJjJP-_Gmhrb7DAbc4mcfv0HVijHSVmhyBHgipwwXhUJ7F-ykUaokWHjKxfuSPjJSB964L9VEi7X4rejSoUqEbkY0hOxKQITiCB5YUPvIY47rUHyONZnbjH4_tYvmlt0tzH3dYV1h3kSyNBSDXXLXZxuU0XplH6yldnoYcet_qBcqtpeL5laUyaSzSqQZOK8ZM1IV6TTgJjQLBZ2JBR-ED6_zUOWrGdAYzaDmUhSy4D7XV2AREmr-OnydB-zrDDp_TMI9SgQzlcN-r-CS0NpVJ4vmRhW6ZiToyE9VoNlNu86UIPpx4GeGbVN-qZ52_BVOOQWYvpZH1XQyM_XTKyiakirt3B7u5xgVU1_AAFHfFqSXuqNjqQqUpYaluEbq7nR0_fD4dRiteSsF1GURLBZshKA3u91AHWuGsqV_0O0?></g></svg>
