<?plantuml 1.2026.1?><svg xmlns="http://www.w3.org/2000/svg" xmlns:xlink="http://www.w3.org/1999/xlink" contentStyleType="text/css" data-diagram-type="DESCRIPTION" height="831px" preserveAspectRatio="none" style="width:830px;height:831px;background:#FFFFFF;" version="1.1" viewBox="0 0 830 831" width="830px" zoomAndPan="magnify"><title>PUML Multi-File Parser - Deployment Diagram</title><defs/><g><g class="title" data-source-line="1"><text fill="#000000" font-family="sans-serif" font-size="14" font-weight="bold" lengthAdjust="spacing" textLength="320.6128" x="247.6936" y="24.9659">PUML Multi-File Parser - Deployment Diagram</text></g><!--cluster PUML Multi-File Parser Runtime--><g class="cluster" data-qualified-name="PUML Multi-File Parser Runtime" data-source-line="3" id="ent0002"><polygon fill="none" points="16,56.0679,26,46.0679,813,46.0679,813,804.0679,803,814.0679,16,814.0679,16,56.0679" style="stroke:#181818;stroke-width:1;"/><line style="stroke:#181818;stroke-width:1;" x1="803" x2="813" y1="56.0679" y2="46.0679"/><line style="stroke:#181818;stroke-width:1;" x1="16" x2="803" y1="56.0679" y2="56.0679"/><line style="stroke:#181818;stroke-width:1;" x1="803" x2="803" y1="56.0679" y2="814.0679"/><text fill="#000000" font-family="sans-serif" font-size="14" font-weight="bold" lengthAdjust="spacing" textLength="222.6272" x="299.1864" y="74.0339">PUML Multi-File Parser Runtime</text></g><!--cluster Pest Grammar--><g class="cluster" data-qualified-name="PUML Multi-File Parser Runtime.Pest Grammar" data-source-line="5" id="ent0003"><polygon fill="none" points="286,115.0679,296,105.0679,781,105.0679,781,338.5679,771,348.5679,286,348.5679,286,115.0679" style="stroke:#181818;stroke-width:1;"/><line style="stroke:#181818;stroke-width:1;" x1="771" x2="781" y1="115.0679" y2="105.0679"/><line style="stroke:#181818;stroke-width:1;" x1="286" x2="771" y1="115.0679" y2="115.0679"/><line style="stroke:#181818;stroke-width:1;" x1="771" x2="771" y1="115.0679" y2="348.5679"/><text fill="#000000" font-family="sans-serif" font-size="14" font-weight="bold" lengthAdjust="spacing" textLength="100.9956" x="479.0022" y="133.0339">Pest Grammar</text></g><!--cluster Input Files--><g class="cluster" data-qualified-name="PUML Multi-File Parser Runtime.Input Files" data-source-line="14" id="ent0010"><polygon fill="none" points="40,123.0679,50,113.0679,254,113.0679,254,204.0679,244,214.0679,40,214.0679,40,123.0679" style="stroke:#181818;stroke-width:1;"/><line style="stroke:#181818;stroke-width:1;" x1="244" x2="254" y1="123.0679" y2="113.0679"/><line style="stroke:#181818;stroke-width:1;" x1="40" x2="244" y1="123.0679" y2="123.0679"/><line style="stroke:#181818;stroke-width:1;" x1="244" x2="244" y1="123.0679" y2="214.0679"/><text fill="#000000" font-family="sans-serif" font-size="14" font-weight="bold" lengthAdjust="spacing" textLength="73.8777" x="106.0611" y="141.0339">Input Files</text></g><!--cluster FlatBuffers Schema--><g class="cluster" data-qualified-name="PUML Multi-File Parser Runtime.FlatBuffers Schema" data-source-line="24" id="ent0015"><polygon fill="none" points="40,417.5679,50,407.5679,266,407.5679,266,498.5679,256,508.5679,40,508.5679,40,417.5679" style="stroke:#181818;stroke-width:1;"/><line style="stroke:#181818;stroke-width:1;" x1="256" x2="266" y1="417.5679" y2="407.5679"/><line style="stroke:#181818;stroke-width:1;" x1="40" x2="256" y1="417.5679" y2="417.5679"/><line style="stroke:#181818;stroke-width:1;" x1="256" x2="256" y1="417.5679" y2="508.5679"/><text fill="#000000" font-family="sans-serif" font-size="14" font-weight="bold" lengthAdjust="spacing" textLength="135.7435" x="81.1283" y="435.5339">FlatBuffers Schema</text></g><!--cluster output--><g class="cluster" data-qualified-name="PUML Multi-File Parser Runtime.output" data-source-line="30" id="ent0017"><polygon fill="none" points="64,699.0679,74,689.0679,551,689.0679,551,780.0679,541,790.0679,64,790.0679,64,699.0679" style="stroke:#181818;stroke-width:1;"/><line style="stroke:#181818;stroke-width:1;" x1="541" x2="551" y1="699.0679" y2="689.0679"/><line style="stroke:#181818;stroke-width:1;" x1="64" x2="541" y1="699.0679" y2="699.0679"/><line style="stroke:#181818;stroke-width:1;" x1="541" x2="541" y1="699.0679" y2="790.0679"/><text fill="#000000" font-family="sans-serif" font-size="14" font-weight="bold" lengthAdjust="spacing" textLength="48.0758" x="279.4621" y="717.0339">output</text></g><!--entity Parser--><g class="entity" data-qualified-name="PUML Multi-File Parser Runtime.Parser" data-source-line="18" id="ent0012"><rect fill="#F1F1F1" height="49.0679" rx="2.5" ry="2.5" style="stroke:#181818;stroke-width:0.5;" width="138.6996" x="122.5" y="279.0679"/><rect fill="#F1F1F1" height="10" style="stroke:#181818;stroke-width:0.5;" width="15" x="241.1996" y="284.0679"/><rect fill="#F1F1F1" height="2" style="stroke:#181818;stroke-width:0.5;" width="4" x="239.1996" y="286.0679"/><rect fill="#F1F1F1" height="2" style="stroke:#181818;stroke-width:0.5;" width="4" x="239.1996" y="290.0679"/><text fill="#000000" font-family="sans-serif" font-size="14" lengthAdjust="spacing" textLength="98.6996" x="137.5" y="314.0339">PumlFileParser</text></g><!--entity Resolver--><g class="entity" data-qualified-name="PUML Multi-File Parser Runtime.Resolver" data-source-line="20" id="ent0013"><rect fill="#F1F1F1" height="49.0679" rx="2.5" ry="2.5" style="stroke:#181818;stroke-width:0.5;" width="173.9235" x="285" y="447.0679"/><rect fill="#F1F1F1" height="10" style="stroke:#181818;stroke-width:0.5;" width="15" x="438.9235" y="452.0679"/><rect fill="#F1F1F1" height="2" style="stroke:#181818;stroke-width:0.5;" width="4" x="436.9235" y="454.0679"/><rect fill="#F1F1F1" height="2" style="stroke:#181818;stroke-width:0.5;" width="4" x="436.9235" y="458.0679"/><text fill="#000000" font-family="sans-serif" font-size="14" lengthAdjust="spacing" textLength="133.9235" x="300" y="482.0339">ComponentResolver</text></g><!--entity Generator--><g class="entity" data-qualified-name="PUML Multi-File Parser Runtime.Generator" data-source-line="22" id="ent0014"><rect fill="#F1F1F1" height="49.0679" rx="2.5" ry="2.5" style="stroke:#181818;stroke-width:0.5;" width="178.0535" x="207" y="575.0679"/><rect fill="#F1F1F1" height="10" style="stroke:#181818;stroke-width:0.5;" width="15" x="365.0535" y="580.0679"/><rect fill="#F1F1F1" height="2" style="stroke:#181818;stroke-width:0.5;" width="4" x="363.0535" y="582.0679"/><rect fill="#F1F1F1" height="2" style="stroke:#181818;stroke-width:0.5;" width="4" x="363.0535" y="586.0679"/><text fill="#000000" font-family="sans-serif" font-size="14" lengthAdjust="spacing" textLength="138.0535" x="222" y="610.0339">ComponentSerializer</text></g><!--entity class.pest--><g class="entity" data-qualified-name="PUML Multi-File Parser Runtime.Pest Grammar.class.pest" data-source-line="6" id="ent0004"><rect fill="#F1F1F1" height="42.0679" rx="2.5" ry="2.5" style="stroke:#181818;stroke-width:0.5;" width="93.6158" x="329" y="156.0679"/><polygon fill="#F1F1F1" points="405.6158,161.0679,405.6158,175.0679,417.6158,175.0679,417.6158,167.0679,411.6158,161.0679,405.6158,161.0679" style="stroke:#181818;stroke-width:0.5;"/><line style="stroke:#181818;stroke-width:0.5;" x1="411.6158" x2="411.6158" y1="161.0679" y2="167.0679"/><line style="stroke:#181818;stroke-width:0.5;" x1="417.6158" x2="411.6158" y1="167.0679" y2="167.0679"/><text fill="#000000" font-family="sans-serif" font-size="14" lengthAdjust="spacing" textLength="63.6158" x="339" y="184.0339">class.pest</text></g><!--entity component.pest--><g class="entity" data-qualified-name="PUML Multi-File Parser Runtime.Pest Grammar.component.pest" data-source-line="7" id="ent0005"><rect fill="#F1F1F1" height="42.0679" rx="2.5" ry="2.5" style="stroke:#181818;stroke-width:0.5;" width="137.6316" x="458" y="156.0679"/><polygon fill="#F1F1F1" points="578.6316,161.0679,578.6316,175.0679,590.6316,175.0679,590.6316,167.0679,584.6316,161.0679,578.6316,161.0679" style="stroke:#181818;stroke-width:0.5;"/><line style="stroke:#181818;stroke-width:0.5;" x1="584.6316" x2="584.6316" y1="161.0679" y2="167.0679"/><line style="stroke:#181818;stroke-width:0.5;" x1="590.6316" x2="584.6316" y1="167.0679" y2="167.0679"/><text fill="#000000" font-family="sans-serif" font-size="14" lengthAdjust="spacing" textLength="107.6316" x="468" y="184.0339">component.pest</text></g><!--entity sequence.pest--><g class="entity" data-qualified-name="PUML Multi-File Parser Runtime.Pest Grammar.sequence.pest" data-source-line="8" id="ent0006"><rect fill="#F1F1F1" height="42.0679" rx="2.5" ry="2.5" style="stroke:#181818;stroke-width:0.5;" width="125.0456" x="631.5" y="156.0679"/><polygon fill="#F1F1F1" points="739.5456,161.0679,739.5456,175.0679,751.5456,175.0679,751.5456,167.0679,745.5456,161.0679,739.5456,161.0679" style="stroke:#181818;stroke-width:0.5;"/><line style="stroke:#181818;stroke-width:0.5;" x1="745.5456" x2="745.5456" y1="161.0679" y2="167.0679"/><line style="stroke:#181818;stroke-width:0.5;" x1="751.5456" x2="745.5456" y1="167.0679" y2="167.0679"/><text fill="#000000" font-family="sans-serif" font-size="14" lengthAdjust="spacing" textLength="95.0456" x="641.5" y="184.0339">sequence.pest</text></g><!--entity common.pest--><g class="entity" data-qualified-name="PUML Multi-File Parser Runtime.Pest Grammar.common.pest" data-source-line="9" id="ent0007"><rect fill="#F1F1F1" height="42.0679" rx="2.5" ry="2.5" style="stroke:#181818;stroke-width:0.5;" width="120.5097" x="325.5" y="282.5679"/><polygon fill="#F1F1F1" points="429.0097,287.5679,429.0097,301.5679,441.0097,301.5679,441.0097,293.5679,435.0097,287.5679,429.0097,287.5679" style="stroke:#181818;stroke-width:0.5;"/><line style="stroke:#181818;stroke-width:0.5;" x1="435.0097" x2="435.0097" y1="287.5679" y2="293.5679"/><line style="stroke:#181818;stroke-width:0.5;" x1="441.0097" x2="435.0097" y1="293.5679" y2="293.5679"/><text fill="#000000" font-family="sans-serif" font-size="14" lengthAdjust="spacing" textLength="90.5097" x="335.5" y="310.5339">common.pest</text></g><!--entity include.pest--><g class="entity" data-qualified-name="PUML Multi-File Parser Runtime.Pest Grammar.include.pest" data-source-line="10" id="ent0008"><rect fill="#F1F1F1" height="42.0679" rx="2.5" ry="2.5" style="stroke:#181818;stroke-width:0.5;" width="109.7717" x="482" y="282.5679"/><polygon fill="#F1F1F1" points="574.7717,287.5679,574.7717,301.5679,586.7717,301.5679,586.7717,293.5679,580.7717,287.5679,574.7717,287.5679" style="stroke:#181818;stroke-width:0.5;"/><line style="stroke:#181818;stroke-width:0.5;" x1="580.7717" x2="580.7717" y1="287.5679" y2="293.5679"/><line style="stroke:#181818;stroke-width:0.5;" x1="586.7717" x2="580.7717" y1="293.5679" y2="293.5679"/><text fill="#000000" font-family="sans-serif" font-size="14" lengthAdjust="spacing" textLength="79.7717" x="492" y="310.5339">include.pest</text></g><!--entity procedure.pest--><g class="entity" data-qualified-name="PUML Multi-File Parser Runtime.Pest Grammar.procedure.pest" data-source-line="11" id="ent0009"><rect fill="#F1F1F1" height="42.0679" rx="2.5" ry="2.5" style="stroke:#181818;stroke-width:0.5;" width="130.4356" x="627" y="282.5679"/><polygon fill="#F1F1F1" points="740.4356,287.5679,740.4356,301.5679,752.4356,301.5679,752.4356,293.5679,746.4356,287.5679,740.4356,287.5679" style="stroke:#181818;stroke-width:0.5;"/><line style="stroke:#181818;stroke-width:0.5;" x1="746.4356" x2="746.4356" y1="287.5679" y2="293.5679"/><line style="stroke:#181818;stroke-width:0.5;" x1="752.4356" x2="746.4356" y1="293.5679" y2="293.5679"/><text fill="#000000" font-family="sans-serif" font-size="14" lengthAdjust="spacing" textLength="100.4356" x="637" y="310.5339">procedure.pest</text></g><!--entity PUMLSources--><g class="entity" data-qualified-name="PUML Multi-File Parser Runtime.Input Files.PUMLSources" data-source-line="15" id="ent0011"><rect fill="#F1F1F1" height="42.0679" rx="2.5" ry="2.5" style="stroke:#181818;stroke-width:0.5;" width="181.7594" x="56" y="156.0679"/><polygon fill="#F1F1F1" points="220.7594,161.0679,220.7594,175.0679,232.7594,175.0679,232.7594,167.0679,226.7594,161.0679,220.7594,161.0679" style="stroke:#181818;stroke-width:0.5;"/><line style="stroke:#181818;stroke-width:0.5;" x1="226.7594" x2="226.7594" y1="161.0679" y2="167.0679"/><line style="stroke:#181818;stroke-width:0.5;" x1="232.7594" x2="226.7594" y1="167.0679" y2="167.0679"/><text fill="#000000" font-family="sans-serif" font-size="14" lengthAdjust="spacing" textLength="151.7594" x="66" y="184.0339">PUML Sources (*.puml)</text></g><!--entity FbsDef--><g class="entity" data-qualified-name="PUML Multi-File Parser Runtime.FlatBuffers Schema.FbsDef" data-source-line="25" id="ent0016"><rect fill="#F1F1F1" height="42.0679" rx="2.5" ry="2.5" style="stroke:#181818;stroke-width:0.5;" width="193.0154" x="56.5" y="450.5679"/><polygon fill="#F1F1F1" points="232.5154,455.5679,232.5154,469.5679,244.5154,469.5679,244.5154,461.5679,238.5154,455.5679,232.5154,455.5679" style="stroke:#181818;stroke-width:0.5;"/><line style="stroke:#181818;stroke-width:0.5;" x1="238.5154" x2="238.5154" y1="455.5679" y2="461.5679"/><line style="stroke:#181818;stroke-width:0.5;" x1="244.5154" x2="238.5154" y1="461.5679" y2="461.5679"/><text fill="#000000" font-family="sans-serif" font-size="14" lengthAdjust="spacing" textLength="163.0154" x="66.5" y="478.5339">FlatBuffers Schema (.fbs)</text></g><!--entity OutputFbs--><g class="entity" data-qualified-name="PUML Multi-File Parser Runtime.output.OutputFbs" data-source-line="31" id="ent0018"><rect fill="#F1F1F1" height="42.0679" rx="2.5" ry="2.5" style="stroke:#181818;stroke-width:0.5;" width="219.9232" x="80" y="732.0679"/><polygon fill="#F1F1F1" points="282.9232,737.0679,282.9232,751.0679,294.9232,751.0679,294.9232,743.0679,288.9232,737.0679,282.9232,737.0679" style="stroke:#181818;stroke-width:0.5;"/><line style="stroke:#181818;stroke-width:0.5;" x1="288.9232" x2="288.9232" y1="737.0679" y2="743.0679"/><line style="stroke:#181818;stroke-width:0.5;" x1="294.9232" x2="288.9232" y1="743.0679" y2="743.0679"/><text fill="#000000" font-family="sans-serif" font-size="14" lengthAdjust="spacing" textLength="189.9232" x="90" y="760.0339">BinaryFlatBufferFile (.fbs.bin)</text></g><!--entity OutputLobster--><g class="entity" data-qualified-name="PUML Multi-File Parser Runtime.output.OutputLobster" data-source-line="32" id="ent0019"><rect fill="#F1F1F1" height="42.0679" rx="2.5" ry="2.5" style="stroke:#181818;stroke-width:0.5;" width="200.1974" x="335" y="732.0679"/><polygon fill="#F1F1F1" points="518.1974,737.0679,518.1974,751.0679,530.1974,751.0679,530.1974,743.0679,524.1974,737.0679,518.1974,737.0679" style="stroke:#181818;stroke-width:0.5;"/><line style="stroke:#181818;stroke-width:0.5;" x1="524.1974" x2="524.1974" y1="737.0679" y2="743.0679"/><line style="stroke:#181818;stroke-width:0.5;" x1="530.1974" x2="524.1974" y1="743.0679" y2="743.0679"/><text fill="#000000" font-family="sans-serif" font-size="14" lengthAdjust="spacing" textLength="170.1974" x="345" y="760.0339">LobsterTraceFile (.lobster)</text></g><!--link PUMLSources to Parser--><g class="link" data-entity-1="ent0011" data-entity-2="ent0012" data-link-type="dependency" data-source-line="36" id="lnk20"><path d="M128.33,198.2979 C117.41,212.6879 107.33,232.3579 116,249.0679 C122.24,261.0979 127.6792,267.5222 138.7392,275.3822" fill="none" id="PUMLSources-to-Parser" style="stroke:#181818;stroke-width:1;"/><polygon fill="#181818" points="143.63,278.8579,138.611,270.3839,139.5544,275.9615,133.9767,276.9049,143.63,278.8579" style="stroke:#181818;stroke-width:1;"/><text fill="#000000" font-family="sans-serif" font-size="13" lengthAdjust="spacing" textLength="81.8871" x="117" y="244.9649">consumed by</text></g><!--link Pest Grammar to Parser--><g class="link" data-entity-1="ent0003" data-entity-2="ent0012" data-link-type="dependency" data-source-line="37" id="lnk21"><path d="M285.9231,187.4525 C285.8186,187.5744 285.7132,187.6973 285.6071,187.8211 C285.1825,188.3163 284.7454,188.8265 284.2965,189.3506 C282.5009,191.4472 280.5175,193.7676 278.4,196.2517 C269.93,206.1879 259.315,218.7429 250,230.0679 C236.69,246.2479 225.6696,259.9879 214.3696,274.2279" fill="none" id="Pest Grammar-to-Parser" style="stroke:#181818;stroke-width:1;"/><polygon fill="#181818" points="210.64,278.9279,219.3678,274.3644,213.748,275.0113,213.1011,269.3915,210.64,278.9279" style="stroke:#181818;stroke-width:1;"/><text fill="#000000" font-family="sans-serif" font-size="13" lengthAdjust="spacing" textLength="57.629" x="251" y="244.9649">grammar</text></g><!--link Parser to Resolver--><g class="link" data-entity-1="ent0012" data-entity-2="ent0013" data-link-type="dependency" data-source-line="38" id="lnk22"><path d="M217.79,328.3479 C252.01,359.9079 307.6487,411.231 341.8487,442.761" fill="none" id="Parser-to-Resolver" style="stroke:#181818;stroke-width:1;"/><polygon fill="#181818" points="346.26,446.8279,342.3543,437.7866,342.5839,443.4388,336.9317,443.6684,346.26,446.8279" style="stroke:#181818;stroke-width:1;"/><text fill="#000000" font-family="sans-serif" font-size="13" lengthAdjust="spacing" textLength="22.672" x="283" y="387.4649">AST</text></g><!--link Resolver to Generator--><g class="link" data-entity-1="ent0013" data-entity-2="ent0014" data-link-type="dependency" data-source-line="39" id="lnk23"><path d="M357.7,496.2679 C344.12,518.7979 326.8997,547.3506 313.3297,569.8406" fill="none" id="Resolver-to-Generator" style="stroke:#181818;stroke-width:1;"/><polygon fill="#181818" points="310.23,574.9779,318.3045,569.3385,312.8131,570.6968,311.4547,565.2055,310.23,574.9779" style="stroke:#181818;stroke-width:1;"/><text fill="#000000" font-family="sans-serif" font-size="13" lengthAdjust="spacing" textLength="104.4551" x="339" y="540.9649">LogicComponent</text></g><!--link FbsDef to Generator--><g class="link" data-entity-1="ent0016" data-entity-2="ent0014" data-link-type="dependency" data-source-line="40" id="lnk24"><path d="M175.98,492.8079 C201.4,515.2079 237.8185,547.301 264.6785,570.971" fill="none" id="FbsDef-to-Generator" style="stroke:#181818;stroke-width:1;"/><polygon fill="#181818" points="269.18,574.9379,265.0723,565.9865,265.4287,571.6322,259.7831,571.9886,269.18,574.9379" style="stroke:#181818;stroke-width:1;"/><text fill="#000000" font-family="sans-serif" font-size="13" lengthAdjust="spacing" textLength="47.281" x="234" y="540.9649">schema</text></g><!--link Generator to OutputFbs--><g class="link" data-entity-1="ent0014" data-entity-2="ent0018" data-link-type="dependency" data-source-line="41" id="lnk25"><path d="M272.4,624.1179 C263.94,633.1279 254.61,643.7179 247,654.0679 C228.34,679.4379 213.5045,706.0527 202.9245,726.4327" fill="none" id="Generator-to-OutputFbs" style="stroke:#181818;stroke-width:1;"/><polygon fill="#181818" points="200.16,731.7579,207.8569,725.6131,202.4637,727.3203,200.7566,721.9271,200.16,731.7579" style="stroke:#181818;stroke-width:1;"/><text fill="#000000" font-family="sans-serif" font-size="13" lengthAdjust="spacing" textLength="37.193" x="248" y="668.9649">writes</text></g><!--link Generator to OutputLobster--><g class="link" data-entity-1="ent0014" data-entity-2="ent0019" data-link-type="dependency" data-source-line="42" id="lnk26"><path d="M317.72,624.2379 C344.9,653.8679 386.923,699.6774 412.483,727.5274" fill="none" id="Generator-to-OutputLobster" style="stroke:#181818;stroke-width:1;"/><polygon fill="#181818" points="416.54,731.9479,413.4015,722.6125,413.1592,728.2642,407.5075,728.0219,416.54,731.9479" style="stroke:#181818;stroke-width:1;"/><text fill="#000000" font-family="sans-serif" font-size="13" lengthAdjust="spacing" textLength="37.193" x="362" y="668.9649">writes</text></g><?plantuml-src VLFRRjim37tNLn1-QJSW_e0z35WNf1YGOaFJVO1iquu0NLnHMf4D-_VHbknuYpqzYJhd43ma5LJG2D--FntXAUgWTWSrnD8JUjZ17dljBWPjWBsIdPT62EiQX693yXnjK0OB-2K4yCbaf02Fh3RI3n3a8trGhQm35BMMH6NFl68DTQPtbglOP12-HhGr_Y-5SNOJLhRMiTcMzzxLs4I_PFnUMlnY-nXWQ0MjEnmRTdBHrqXm_xxiez7l2f0qTZy3oxopQTOoTqYTcfn4u_M6-NcwFYCv_IEJfs2RVaAlf5O_i-0HBNePd5zQF6WP7cBReYSurMSqSjtfBG_koxQYvFPGqHxRMNR7EzOgopq9PuIbr22Hx10efOY43RoTqIwahT9QsGwaRO2oWo4UKbNAIdy15mCFfhmTM0BM7JoCscinuuQF7afEctny7VNiPaL_T1K5z2zUrfYrEZqjjPcLI-FY5ei0kzt7wKzzu8bPYeRzLnVnpsVwYzUbLp7zNyQcqJFwwVGYvd30vYapU7ITgkTr46bADwmq2t5z6WXp9vZmvbNWDLuZPBjNqXy0?></g></svg>
