<?plantuml 1.2026.1?><svg xmlns="http://www.w3.org/2000/svg" xmlns:xlink="http://www.w3.org/1999/xlink" contentStyleType="text/css" data-diagram-type="SEQUENCE" height="1037px" preserveAspectRatio="none" style="width:1350px;height:1037px;background:#FFFFFF;" version="1.1" viewBox="0 0 1350 1037" width="1350px" zoomAndPan="magnify"><title>Main Parsing Flow</title><defs/><g><text fill="#000000" font-family="sans-serif" font-size="14" font-weight="bold" lengthAdjust="spacing" textLength="127.9035" x="612.5833" y="29.9659">Main Parsing Flow</text><g><title>CLI</title><rect fill="#FFFFFF" height="900.8218" style="stroke:#181818;stroke-width:1;" width="10" x="145.465" y="89.1358"/></g><g><title>Preprocessor</title><rect fill="#FFFFFF" height="34.0679" style="stroke:#181818;stroke-width:1;" width="10" x="371.7221" y="122.8419"/></g><g><title>Preprocessor</title><rect fill="#FFFFFF" height="31.706" style="stroke:#181818;stroke-width:1;" width="10" x="371.7221" y="188.6158"/></g><g><title>PumlSequenceParser</title><rect fill="#FFFFFF" height="37.0679" style="stroke:#181818;stroke-width:1;" width="10" x="509.5277" y="344.1459"/></g><g><title>PumlClassParser</title><rect fill="#FFFFFF" height="37.0679" style="stroke:#181818;stroke-width:1;" width="10" x="658.7082" y="459.6258"/></g><g><title>PumlComponentParser</title><rect fill="#FFFFFF" height="37.0679" style="stroke:#181818;stroke-width:1;" width="10" x="814.7557" y="575.1058"/></g><g><title>ComponentResolver</title><rect fill="#FFFFFF" height="31.706" style="stroke:#181818;stroke-width:1;" width="10" x="982.7452" y="776.3596"/></g><g><title>ComponentSerializer</title><rect fill="#FFFFFF" height="34.0679" style="stroke:#181818;stroke-width:1;" width="10" x="1142.7337" y="849.7717"/></g><g><title>puml_lobster</title><rect fill="#FFFFFF" height="31.706" style="stroke:#181818;stroke-width:1;" width="10" x="1278.9152" y="942.2516"/></g><rect fill="none" height="466.2639" style="stroke:#000000;stroke-width:1.5;" width="928.9448" x="9" y="235.3218"/><rect fill="none" height="19.706" style="stroke:#000000;stroke-width:1.5;" width="266.6237" x="143" y="399.2138"/><rect fill="none" height="19.706" style="stroke:#000000;stroke-width:1.5;" width="241.1699" x="143" y="514.6937"/><rect fill="none" height="19.706" style="stroke:#000000;stroke-width:1.5;" width="277.3486" x="143" y="630.1737"/><rect fill="none" height="83.118" style="stroke:#000000;stroke-width:1.5;" width="1221.0701" x="123" y="898.8396"/><g class="participant-lifeline" data-entity-uid="part1" data-qualified-name="Cli" id="part1-lifeline"><g><title>CLI</title><rect fill="#000000" fill-opacity="0.00000" height="919.8218" width="8" x="146.465" y="79.1358"/><line style="stroke:#181818;stroke-width:0.5;stroke-dasharray:5,5;" x1="150" x2="150" y1="79.1358" y2="998.9576"/></g></g><g class="participant-lifeline" data-entity-uid="part2" data-qualified-name="include" id="part2-lifeline"><g><title>Preprocessor</title><rect fill="#000000" fill-opacity="0.00000" height="877.7879" width="8" x="372.7221" y="121.1698"/><line style="stroke:#181818;stroke-width:0.5;stroke-dasharray:5,5;" x1="376.0773" x2="376.0773" y1="121.1698" y2="998.9576"/></g></g><g class="participant-lifeline" data-entity-uid="part3" data-qualified-name="seq" id="part3-lifeline"><g><title>PumlSequenceParser</title><rect fill="#000000" fill-opacity="0.00000" height="656.4838" width="8" x="510.5277" y="342.4738"/><line style="stroke:#181818;stroke-width:0.5;stroke-dasharray:5,5;" x1="514.367" x2="514.367" y1="342.4738" y2="998.9576"/></g></g><g class="participant-lifeline" data-entity-uid="part4" data-qualified-name="class" id="part4-lifeline"><g><title>PumlClassParser</title><rect fill="#000000" fill-opacity="0.00000" height="541.0039" width="8" x="659.7082" y="457.9538"/><line style="stroke:#181818;stroke-width:0.5;stroke-dasharray:5,5;" x1="663.6884" x2="663.6884" y1="457.9538" y2="998.9576"/></g></g><g class="participant-lifeline" data-entity-uid="part5" data-qualified-name="component" id="part5-lifeline"><g><title>PumlComponentParser</title><rect fill="#000000" fill-opacity="0.00000" height="425.5239" width="8" x="815.7557" y="573.4337"/><line style="stroke:#181818;stroke-width:0.5;stroke-dasharray:5,5;" x1="819.728" x2="819.728" y1="573.4337" y2="998.9576"/></g></g><g class="participant-lifeline" data-entity-uid="part6" data-qualified-name="resolver" id="part6-lifeline"><g><title>ComponentResolver</title><rect fill="#000000" fill-opacity="0.00000" height="258.338" width="8" x="983.7452" y="740.6197"/><line style="stroke:#181818;stroke-width:0.5;stroke-dasharray:5,5;" x1="986.7834" x2="986.7834" y1="740.6197" y2="998.9576"/></g></g><g class="participant-lifeline" data-entity-uid="part7" data-qualified-name="serializer" id="part7-lifeline"><g><title>ComponentSerializer</title><rect fill="#000000" fill-opacity="0.00000" height="150.858" width="8" x="1143.7337" y="848.0996"/><line style="stroke:#181818;stroke-width:0.5;stroke-dasharray:5,5;" x1="1147.7069" x2="1147.7069" y1="848.0996" y2="998.9576"/></g></g><g class="participant-lifeline" data-entity-uid="part8" data-qualified-name="lobster" id="part8-lifeline"><g><title>puml_lobster</title><rect fill="#000000" fill-opacity="0.00000" height="919.8218" width="8" x="1279.9152" y="79.1358"/><line style="stroke:#181818;stroke-width:0.5;stroke-dasharray:5,5;" x1="1283.7604" x2="1283.7604" y1="79.1358" y2="998.9576"/></g></g><g class="participant participant-head" data-entity-uid="part1" data-qualified-name="Cli" id="part1-head"><rect fill="#E2E2F0" height="33.0679" rx="2.5" ry="2.5" style="stroke:#181818;stroke-width:0.5;" width="34.9299" x="133" y="45.0679"/><text fill="#000000" font-family="sans-serif" font-size="14" lengthAdjust="spacing" textLength="20.9299" x="140" y="67.0339">CLI</text></g><g class="participant participant-tail" data-entity-uid="part1" data-qualified-name="Cli" id="part1-tail"><rect fill="#E2E2F0" height="33.0679" rx="2.5" ry="2.5" style="stroke:#181818;stroke-width:0.5;" width="34.9299" x="133" y="997.9576"/><text fill="#000000" font-family="sans-serif" font-size="14" lengthAdjust="spacing" textLength="20.9299" x="140" y="1019.9236">CLI</text></g><g class="participant participant-tail" data-entity-uid="part2" data-qualified-name="include" id="part2-tail"><rect fill="#E2E2F0" height="33.0679" rx="2.5" ry="2.5" style="stroke:#181818;stroke-width:0.5;" width="101.2897" x="326.0773" y="997.9576"/><text fill="#000000" font-family="sans-serif" font-size="14" lengthAdjust="spacing" textLength="87.2897" x="333.0773" y="1019.9236">Preprocessor</text></g><g class="participant participant-tail" data-entity-uid="part3" data-qualified-name="seq" id="part3-tail"><rect fill="#E2E2F0" height="33.0679" rx="2.5" ry="2.5" style="stroke:#181818;stroke-width:0.5;" width="154.3215" x="437.367" y="997.9576"/><text fill="#000000" font-family="sans-serif" font-size="14" lengthAdjust="spacing" textLength="140.3215" x="444.367" y="1019.9236">PumlSequenceParser</text></g><g class="participant participant-tail" data-entity-uid="part4" data-qualified-name="class" id="part4-tail"><rect fill="#E2E2F0" height="33.0679" rx="2.5" ry="2.5" style="stroke:#181818;stroke-width:0.5;" width="124.0396" x="601.6884" y="997.9576"/><text fill="#000000" font-family="sans-serif" font-size="14" lengthAdjust="spacing" textLength="110.0396" x="608.6884" y="1019.9236">PumlClassParser</text></g><g class="participant participant-tail" data-entity-uid="part5" data-qualified-name="component" id="part5-tail"><rect fill="#E2E2F0" height="33.0679" rx="2.5" ry="2.5" style="stroke:#181818;stroke-width:0.5;" width="168.0554" x="735.728" y="997.9576"/><text fill="#000000" font-family="sans-serif" font-size="14" lengthAdjust="spacing" textLength="154.0554" x="742.728" y="1019.9236">PumlComponentParser</text></g><g class="participant participant-tail" data-entity-uid="part6" data-qualified-name="resolver" id="part6-tail"><rect fill="#E2E2F0" height="33.0679" rx="2.5" ry="2.5" style="stroke:#181818;stroke-width:0.5;" width="147.9235" x="913.7834" y="997.9576"/><text fill="#000000" font-family="sans-serif" font-size="14" lengthAdjust="spacing" textLength="133.9235" x="920.7834" y="1019.9236">ComponentResolver</text></g><g class="participant participant-tail" data-entity-uid="part7" data-qualified-name="serializer" id="part7-tail"><rect fill="#E2E2F0" height="33.0679" rx="2.5" ry="2.5" style="stroke:#181818;stroke-width:0.5;" width="152.0535" x="1071.7069" y="997.9576"/><text fill="#000000" font-family="sans-serif" font-size="14" lengthAdjust="spacing" textLength="138.0535" x="1078.7069" y="1019.9236">ComponentSerializer</text></g><g class="participant participant-head" data-entity-uid="part8" data-qualified-name="lobster" id="part8-head"><rect fill="#E2E2F0" height="33.0679" rx="2.5" ry="2.5" style="stroke:#181818;stroke-width:0.5;" width="100.3097" x="1233.7604" y="45.0679"/><text fill="#000000" font-family="sans-serif" font-size="14" lengthAdjust="spacing" textLength="86.3097" x="1240.7604" y="67.0339">puml_lobster</text></g><g class="participant participant-tail" data-entity-uid="part8" data-qualified-name="lobster" id="part8-tail"><rect fill="#E2E2F0" height="33.0679" rx="2.5" ry="2.5" style="stroke:#181818;stroke-width:0.5;" width="100.3097" x="1233.7604" y="997.9576"/><text fill="#000000" font-family="sans-serif" font-size="14" lengthAdjust="spacing" textLength="86.3097" x="1240.7604" y="1019.9236">puml_lobster</text></g><g><title>CLI</title><rect fill="#FFFFFF" height="900.8218" style="stroke:#181818;stroke-width:1;" width="10" x="145.465" y="89.1358"/></g><g><title>Preprocessor</title><rect fill="#FFFFFF" height="34.0679" style="stroke:#181818;stroke-width:1;" width="10" x="371.7221" y="122.8419"/></g><g><title>Preprocessor</title><rect fill="#FFFFFF" height="31.706" style="stroke:#181818;stroke-width:1;" width="10" x="371.7221" y="188.6158"/></g><g><title>PumlSequenceParser</title><rect fill="#FFFFFF" height="37.0679" style="stroke:#181818;stroke-width:1;" width="10" x="509.5277" y="344.1459"/></g><g><title>PumlClassParser</title><rect fill="#FFFFFF" height="37.0679" style="stroke:#181818;stroke-width:1;" width="10" x="658.7082" y="459.6258"/></g><g><title>PumlComponentParser</title><rect fill="#FFFFFF" height="37.0679" style="stroke:#181818;stroke-width:1;" width="10" x="814.7557" y="575.1058"/></g><g><title>ComponentResolver</title><rect fill="#FFFFFF" height="31.706" style="stroke:#181818;stroke-width:1;" width="10" x="982.7452" y="776.3596"/></g><g><title>ComponentSerializer</title><rect fill="#FFFFFF" height="34.0679" style="stroke:#181818;stroke-width:1;" width="10" x="1142.7337" y="849.7717"/></g><g><title>puml_lobster</title><rect fill="#FFFFFF" height="31.706" style="stroke:#181818;stroke-width:1;" width="10" x="1278.9152" y="942.2516"/></g><g class="message" data-entity-1="part1" data-entity-2="part2" id="msg1"><polygon fill="#181818" points="314.0773,108.8419,324.0773,112.8419,314.0773,116.8419,318.0773,112.8419" style="stroke:#181818;stroke-width:1;"/><line style="stroke:#181818;stroke-width:1;" x1="155.465" x2="320.0773" y1="112.8419" y2="112.8419"/><text fill="#000000" font-family="sans-serif" font-size="13" lengthAdjust="spacing" textLength="33.384" x="162.465" y="107.0328">new()</text></g><rect fill="#E2E2F0" height="33.0679" rx="2.5" ry="2.5" style="stroke:#181818;stroke-width:0.5;" width="101.2897" x="326.0773" y="89.1358"/><text fill="#000000" font-family="sans-serif" font-size="14" lengthAdjust="spacing" textLength="87.2897" x="333.0773" y="111.1018">Preprocessor</text><g class="message" data-entity-1="part2" data-entity-2="part1" id="msg3"><polygon fill="#181818" points="166.465,152.9098,156.465,156.9098,166.465,160.9098,162.465,156.9098" style="stroke:#181818;stroke-width:1;"/><line style="stroke:#181818;stroke-width:1;stroke-dasharray:2,2;" x1="160.465" x2="375.7221" y1="156.9098" y2="156.9098"/><text fill="#000000" font-family="sans-serif" font-size="13" lengthAdjust="spacing" textLength="99.5671" x="172.465" y="151.1008">include_resolver</text></g><g class="message" data-entity-1="part1" data-entity-2="part2" id="msg4"><polygon fill="#181818" points="359.7221,184.6158,369.7221,188.6158,359.7221,192.6158,363.7221,188.6158" style="stroke:#181818;stroke-width:1;"/><line style="stroke:#181818;stroke-width:1;" x1="155.465" x2="365.7221" y1="188.6158" y2="188.6158"/><text fill="#000000" font-family="sans-serif" font-size="13" lengthAdjust="spacing" textLength="177.4892" x="162.465" y="182.8068">preprocess(file_list, log_level)</text></g><g class="message" data-entity-1="part2" data-entity-2="part1" id="msg5"><polygon fill="#181818" points="166.465,216.3218,156.465,220.3218,166.465,224.3218,162.465,220.3218" style="stroke:#181818;stroke-width:1;"/><line style="stroke:#181818;stroke-width:1;stroke-dasharray:2,2;" x1="160.465" x2="375.7221" y1="220.3218" y2="220.3218"/><text fill="#000000" font-family="sans-serif" font-size="13" lengthAdjust="spacing" textLength="165.4252" x="172.465" y="214.5128">HashMap&lt;PathBuf, String&gt;</text></g><path d="M9,235.3218 L82.288,235.3218 L82.288,245.0278 L72.288,255.0278 L9,255.0278 L9,235.3218" fill="#EEEEEE" style="stroke:#000000;stroke-width:1.5;"/><rect fill="none" height="466.2639" style="stroke:#000000;stroke-width:1.5;" width="928.9448" x="9" y="235.3218"/><text fill="#000000" font-family="sans-serif" font-size="13" font-weight="bold" lengthAdjust="spacing" textLength="28.288" x="24" y="250.2188">loop</text><text fill="#000000" font-family="sans-serif" font-size="11" font-weight="bold" lengthAdjust="spacing" textLength="127.7971" x="97.288" y="249.0807">[for each file in file_list]</text><path d="M19,260.0278 L19,305.0278 L280,305.0278 L280,270.0278 L270,260.0278 L19,260.0278" fill="#FEFFDD" style="stroke:#181818;stroke-width:0.5;"/><path d="M270,260.0278 L270,270.0278 L280,270.0278 L270,260.0278" fill="#FEFFDD" style="stroke:#181818;stroke-width:0.5;"/><text fill="#000000" font-family="sans-serif" font-size="13" lengthAdjust="spacing" textLength="240.0842" x="25" y="278.9248">If no CLI argument, try parsers in order</text><text fill="#000000" font-family="sans-serif" font-size="13" lengthAdjust="spacing" textLength="229.4892" x="25" y="296.6308">otherwise use specified parser via CLI</text><g class="message" data-entity-1="part1" data-entity-2="part3" id="msg6"><polygon fill="#181818" points="425.367,330.1459,435.367,334.1459,425.367,338.1459,429.367,334.1459" style="stroke:#181818;stroke-width:1;"/><line style="stroke:#181818;stroke-width:1;" x1="155.465" x2="431.367" y1="334.1459" y2="334.1459"/><text fill="#000000" font-family="sans-serif" font-size="13" lengthAdjust="spacing" textLength="207.8962" x="162.465" y="328.3369">parse_file(path, content, log_level)</text></g><rect fill="#E2E2F0" height="33.0679" rx="2.5" ry="2.5" style="stroke:#181818;stroke-width:0.5;" width="154.3215" x="437.367" y="310.4398"/><text fill="#000000" font-family="sans-serif" font-size="14" lengthAdjust="spacing" textLength="140.3215" x="444.367" y="332.4058">PumlSequenceParser</text><g class="message" data-entity-1="part3" data-entity-2="part1" id="msg8"><polygon fill="#181818" points="166.465,377.2138,156.465,381.2138,166.465,385.2138,162.465,381.2138" style="stroke:#181818;stroke-width:1;"/><line style="stroke:#181818;stroke-width:1;stroke-dasharray:2,2;" x1="160.465" x2="513.5277" y1="381.2138" y2="381.2138"/><text fill="#000000" font-family="sans-serif" font-size="13" lengthAdjust="spacing" textLength="170.3132" x="172.465" y="375.4048">Result&lt;SeqPumlDocument&gt;</text></g><path d="M524,359.5078 L524,386.5078 L617,386.5078 L617,369.5078 L607,359.5078 L524,359.5078" fill="#FEFFDD" style="stroke:#181818;stroke-width:0.5;"/><path d="M607,359.5078 L607,369.5078 L617,369.5078 L607,359.5078" fill="#FEFFDD" style="stroke:#181818;stroke-width:0.5;"/><text fill="#000000" font-family="sans-serif" font-size="13" lengthAdjust="spacing" textLength="72.1891" x="530" y="378.4048">return early</text><line style="stroke:#A80036;stroke-width:2;" x1="505.5277" x2="523.5277" y1="372.2138" y2="390.2138"/><line style="stroke:#A80036;stroke-width:2;" x1="505.5277" x2="523.5277" y1="390.2138" y2="372.2138"/><path d="M143,399.2138 L209.918,399.2138 L209.918,408.9198 L199.918,418.9198 L143,418.9198 L143,399.2138" fill="#EEEEEE" style="stroke:#000000;stroke-width:1.5;"/><rect fill="none" height="19.706" style="stroke:#000000;stroke-width:1.5;" width="266.6237" x="143" y="399.2138"/><text fill="#000000" font-family="sans-serif" font-size="13" font-weight="bold" lengthAdjust="spacing" textLength="21.918" x="158" y="414.1108">opt</text><text fill="#000000" font-family="sans-serif" font-size="11" font-weight="bold" lengthAdjust="spacing" textLength="179.7057" x="224.918" y="412.9727">[sequence parser not succeeded]</text><g class="message" data-entity-1="part1" data-entity-2="part4" id="msg10"><polygon fill="#181818" points="589.6884,445.6258,599.6884,449.6258,589.6884,453.6258,593.6884,449.6258" style="stroke:#181818;stroke-width:1;"/><line style="stroke:#181818;stroke-width:1;" x1="155.465" x2="595.6884" y1="449.6258" y2="449.6258"/><text fill="#000000" font-family="sans-serif" font-size="13" lengthAdjust="spacing" textLength="207.8962" x="162.465" y="443.8168">parse_file(path, content, log_level)</text></g><rect fill="#E2E2F0" height="33.0679" rx="2.5" ry="2.5" style="stroke:#181818;stroke-width:0.5;" width="124.0396" x="601.6884" y="425.9198"/><text fill="#000000" font-family="sans-serif" font-size="14" lengthAdjust="spacing" textLength="110.0396" x="608.6884" y="447.8857">PumlClassParser</text><g class="message" data-entity-1="part4" data-entity-2="part1" id="msg12"><polygon fill="#181818" points="166.465,492.6937,156.465,496.6937,166.465,500.6937,162.465,496.6937" style="stroke:#181818;stroke-width:1;"/><line style="stroke:#181818;stroke-width:1;stroke-dasharray:2,2;" x1="160.465" x2="662.7082" y1="496.6937" y2="496.6937"/><text fill="#000000" font-family="sans-serif" font-size="13" lengthAdjust="spacing" textLength="129.7141" x="172.465" y="490.8847">Result&lt;ClassUmlFile&gt;</text></g><path d="M673,474.9877 L673,501.9877 L766,501.9877 L766,484.9877 L756,474.9877 L673,474.9877" fill="#FEFFDD" style="stroke:#181818;stroke-width:0.5;"/><path d="M756,474.9877 L756,484.9877 L766,484.9877 L756,474.9877" fill="#FEFFDD" style="stroke:#181818;stroke-width:0.5;"/><text fill="#000000" font-family="sans-serif" font-size="13" lengthAdjust="spacing" textLength="72.1891" x="679" y="493.8847">return early</text><line style="stroke:#A80036;stroke-width:2;" x1="654.7082" x2="672.7082" y1="487.6937" y2="505.6937"/><line style="stroke:#A80036;stroke-width:2;" x1="654.7082" x2="672.7082" y1="505.6937" y2="487.6937"/><path d="M143,514.6937 L209.918,514.6937 L209.918,524.3997 L199.918,534.3997 L143,534.3997 L143,514.6937" fill="#EEEEEE" style="stroke:#000000;stroke-width:1.5;"/><rect fill="none" height="19.706" style="stroke:#000000;stroke-width:1.5;" width="241.1699" x="143" y="514.6937"/><text fill="#000000" font-family="sans-serif" font-size="13" font-weight="bold" lengthAdjust="spacing" textLength="21.918" x="158" y="529.5907">opt</text><text fill="#000000" font-family="sans-serif" font-size="11" font-weight="bold" lengthAdjust="spacing" textLength="154.2519" x="224.918" y="528.4526">[class parser not succeeded]</text><g class="message" data-entity-1="part1" data-entity-2="part5" id="msg14"><polygon fill="#181818" points="723.728,561.1058,733.728,565.1058,723.728,569.1058,727.728,565.1058" style="stroke:#181818;stroke-width:1;"/><line style="stroke:#181818;stroke-width:1;" x1="155.465" x2="729.728" y1="565.1058" y2="565.1058"/><text fill="#000000" font-family="sans-serif" font-size="13" lengthAdjust="spacing" textLength="207.8962" x="162.465" y="559.2968">parse_file(path, content, log_level)</text></g><rect fill="#E2E2F0" height="33.0679" rx="2.5" ry="2.5" style="stroke:#181818;stroke-width:0.5;" width="168.0554" x="735.728" y="541.3997"/><text fill="#000000" font-family="sans-serif" font-size="14" lengthAdjust="spacing" textLength="154.0554" x="742.728" y="563.3657">PumlComponentParser</text><g class="message" data-entity-1="part5" data-entity-2="part1" id="msg16"><polygon fill="#181818" points="166.465,608.1737,156.465,612.1737,166.465,616.1737,162.465,612.1737" style="stroke:#181818;stroke-width:1;"/><line style="stroke:#181818;stroke-width:1;stroke-dasharray:2,2;" x1="160.465" x2="818.7557" y1="612.1737" y2="612.1737"/><text fill="#000000" font-family="sans-serif" font-size="13" lengthAdjust="spacing" textLength="184.0802" x="172.465" y="606.3647">Result&lt;CompPumlDocument&gt;</text></g><path d="M829,590.4677 L829,617.4677 L922,617.4677 L922,600.4677 L912,590.4677 L829,590.4677" fill="#FEFFDD" style="stroke:#181818;stroke-width:0.5;"/><path d="M912,590.4677 L912,600.4677 L922,600.4677 L912,590.4677" fill="#FEFFDD" style="stroke:#181818;stroke-width:0.5;"/><text fill="#000000" font-family="sans-serif" font-size="13" lengthAdjust="spacing" textLength="72.1891" x="835" y="609.3647">return early</text><line style="stroke:#A80036;stroke-width:2;" x1="810.7557" x2="828.7557" y1="603.1737" y2="621.1737"/><line style="stroke:#A80036;stroke-width:2;" x1="810.7557" x2="828.7557" y1="621.1737" y2="603.1737"/><path d="M143,630.1737 L209.918,630.1737 L209.918,639.8797 L199.918,649.8797 L143,649.8797 L143,630.1737" fill="#EEEEEE" style="stroke:#000000;stroke-width:1.5;"/><rect fill="none" height="19.706" style="stroke:#000000;stroke-width:1.5;" width="277.3486" x="143" y="630.1737"/><text fill="#000000" font-family="sans-serif" font-size="13" font-weight="bold" lengthAdjust="spacing" textLength="21.918" x="158" y="645.0707">opt</text><text fill="#000000" font-family="sans-serif" font-size="11" font-weight="bold" lengthAdjust="spacing" textLength="190.4306" x="224.918" y="643.9326">[component parser not succeeded]</text><g class="message" data-entity-1="part1" data-entity-2="part1" id="msg18"><line style="stroke:#181818;stroke-width:1;stroke-dasharray:2,2;" x1="155.465" x2="197.465" y1="680.5857" y2="680.5857"/><line style="stroke:#181818;stroke-width:1;stroke-dasharray:2,2;" x1="197.465" x2="197.465" y1="680.5857" y2="693.5857"/><line style="stroke:#181818;stroke-width:1;stroke-dasharray:2,2;" x1="156.465" x2="197.465" y1="693.5857" y2="693.5857"/><polygon fill="#181818" points="166.465,689.5857,156.465,693.5857,166.465,697.5857,162.465,693.5857" style="stroke:#181818;stroke-width:1;"/><text fill="#000000" font-family="sans-serif" font-size="13" lengthAdjust="spacing" textLength="192.2572" x="162.465" y="674.7767">Error(NoDiagramTypeMatched)</text></g><g class="message" data-entity-1="part1" data-entity-2="part6" id="msg19"><polygon fill="#181818" points="901.7834,728.2917,911.7834,732.2917,901.7834,736.2917,905.7834,732.2917" style="stroke:#181818;stroke-width:1;"/><line style="stroke:#181818;stroke-width:1;" x1="155.465" x2="907.7834" y1="732.2917" y2="732.2917"/><text fill="#000000" font-family="sans-serif" font-size="13" lengthAdjust="spacing" textLength="33.384" x="162.465" y="726.4827">new()</text></g><rect fill="#E2E2F0" height="33.0679" rx="2.5" ry="2.5" style="stroke:#181818;stroke-width:0.5;" width="147.9235" x="913.7834" y="708.5857"/><text fill="#000000" font-family="sans-serif" font-size="14" lengthAdjust="spacing" textLength="133.9235" x="920.7834" y="730.5517">ComponentResolver</text><g class="message" data-entity-1="part1" data-entity-2="part6" id="msg21"><polygon fill="#181818" points="970.7452,772.3596,980.7452,776.3596,970.7452,780.3596,974.7452,776.3596" style="stroke:#181818;stroke-width:1;"/><line style="stroke:#181818;stroke-width:1;" x1="155.465" x2="976.7452" y1="776.3596" y2="776.3596"/><text fill="#000000" font-family="sans-serif" font-size="13" lengthAdjust="spacing" textLength="127.8811" x="162.465" y="770.5506">visit_document(&amp;ast)</text></g><g class="message" data-entity-1="part6" data-entity-2="part1" id="msg22"><polygon fill="#181818" points="166.465,804.0657,156.465,808.0657,166.465,812.0657,162.465,808.0657" style="stroke:#181818;stroke-width:1;"/><line style="stroke:#181818;stroke-width:1;stroke-dasharray:2,2;" x1="160.465" x2="986.7452" y1="808.0657" y2="808.0657"/><text fill="#000000" font-family="sans-serif" font-size="13" lengthAdjust="spacing" textLength="221.0392" x="172.465" y="802.2567">HashMap&lt;String, LogicComponent&gt;</text></g><line style="stroke:#A80036;stroke-width:2;" x1="978.7452" x2="996.7452" y1="799.0657" y2="817.0657"/><line style="stroke:#A80036;stroke-width:2;" x1="978.7452" x2="996.7452" y1="817.0657" y2="799.0657"/><g class="message" data-entity-1="part1" data-entity-2="part7" id="msg23"><polygon fill="#181818" points="1059.7069,835.7717,1069.7069,839.7717,1059.7069,843.7717,1063.7069,839.7717" style="stroke:#181818;stroke-width:1;"/><line style="stroke:#181818;stroke-width:1;" x1="155.465" x2="1065.7069" y1="839.7717" y2="839.7717"/><text fill="#000000" font-family="sans-serif" font-size="13" lengthAdjust="spacing" textLength="215.6962" x="162.465" y="833.9627">serialize(&amp;components, source_file)</text></g><rect fill="#E2E2F0" height="33.0679" rx="2.5" ry="2.5" style="stroke:#181818;stroke-width:0.5;" width="152.0535" x="1071.7069" y="816.0657"/><text fill="#000000" font-family="sans-serif" font-size="14" lengthAdjust="spacing" textLength="138.0535" x="1078.7069" y="838.0316">ComponentSerializer</text><g class="message" data-entity-1="part7" data-entity-2="part1" id="msg25"><polygon fill="#181818" points="166.465,879.8396,156.465,883.8396,166.465,887.8396,162.465,883.8396" style="stroke:#181818;stroke-width:1;"/><line style="stroke:#181818;stroke-width:1;stroke-dasharray:2,2;" x1="160.465" x2="1146.7337" y1="883.8396" y2="883.8396"/><text fill="#000000" font-family="sans-serif" font-size="13" lengthAdjust="spacing" textLength="51.714" x="172.465" y="878.0306">Vec&lt;u8&gt;</text></g><line style="stroke:#A80036;stroke-width:2;" x1="1138.7337" x2="1156.7337" y1="874.8396" y2="892.8396"/><line style="stroke:#A80036;stroke-width:2;" x1="1138.7337" x2="1156.7337" y1="892.8396" y2="874.8396"/><path d="M123,898.8396 L189.918,898.8396 L189.918,908.5456 L179.918,918.5456 L123,918.5456 L123,898.8396" fill="#EEEEEE" style="stroke:#000000;stroke-width:1.5;"/><rect fill="none" height="83.118" style="stroke:#000000;stroke-width:1.5;" width="1221.0701" x="123" y="898.8396"/><text fill="#000000" font-family="sans-serif" font-size="13" font-weight="bold" lengthAdjust="spacing" textLength="21.918" x="138" y="913.7366">opt</text><text fill="#000000" font-family="sans-serif" font-size="11" font-weight="bold" lengthAdjust="spacing" textLength="159.9388" x="204.918" y="912.5985">[lobster_output_dir provided]</text><g class="message" data-entity-1="part1" data-entity-2="part8" id="msg26"><polygon fill="#181818" points="1266.9152,938.2516,1276.9152,942.2516,1266.9152,946.2516,1270.9152,942.2516" style="stroke:#181818;stroke-width:1;"/><line style="stroke:#181818;stroke-width:1;" x1="155.465" x2="1272.9152" y1="942.2516" y2="942.2516"/><text fill="#000000" font-family="sans-serif" font-size="13" lengthAdjust="spacing" textLength="281.1123" x="162.465" y="936.4426">model_to_lobster(&amp;components, source_path)</text></g><g class="message" data-entity-1="part8" data-entity-2="part1" id="msg27"><polygon fill="#181818" points="166.465,969.9576,156.465,973.9576,166.465,977.9576,162.465,973.9576" style="stroke:#181818;stroke-width:1;"/><line style="stroke:#181818;stroke-width:1;stroke-dasharray:2,2;" x1="160.465" x2="1282.9152" y1="973.9576" y2="973.9576"/><text fill="#000000" font-family="sans-serif" font-size="13" lengthAdjust="spacing" textLength="30.719" x="172.465" y="968.1486">JSON</text></g><?plantuml-src hLHDRnen4BtlhnZb4964t2k4E3Hfr5GXHQNjgTBAzGvWoQoTiGsYlxwsrpRBalOG1MdHUlRD-Btvii9AX3aJBImO6T6kuK6gVLLfHbPmeLbhuUBkwV42c84xAKu_B0WrAOx6A8e8qNBf6XoWt5OkySLXop7SWXtMuCivxauoOteW7iwlmDHMgnPRsuTcsu1yDdz3e-GkWIaT_e5T8WacnPz2DHzFyTfJgQNwRMm2flUgOjoA7RCOSrRvFxYTvUp0zVK4MjoFhewmd3X2wwZDnxhG78QukPc0BjaVhOJ4MWfZnvx2kfQuGtcLWtrcPZDdUhfWTlFHhSQmjEGhFQiggPI6bI90nZSGWlWBe0IhmFzQvUafpo58cS3Zobl0TmGmMhkjpzKOB1r0nqA43W153T8lxxT1sWk3uFnZD7An4jWa9Em42s6gU4bIvriY9YT2wi1Zf3tfiQzjQ-DLFNN1h-GlD5CmX0YtFbBawYlkf9twtWizSwzuv3kBm0RFV1iqbjGXdgD1QHiEiN4pRIyBZECSiS4ceagIIAmtTW8fwyX87Y80s-P4PUpfD-hivY6OkYX3hN5-VcpbWuzv9lJedALsbYAsY_cEIlCylLLj6Ucek4GxK-s__BV4fu6A-c8zPg3SyLvPo5G_4IaQFQjxmTR4jjyF6kVCyWqsLrNqI3dB8z_R4iClOVXtmWXRDqdmw98PUpRmtPoFuKcj1I-xRLPb_MVRvRZduktbEBeiUJ5ZCCeHxmhPss2z7TaBK-J_H3vr7yBThtaSHw-Ogb2Ej4zhvQnsNguWl_NKJkHQ9Du9De6jQb3MLkMb_2hnq7o3HijxEnZJ-v7wb-NNvs53POTGkRy0?></g></svg>
